<svg xmlns="http://www.w3.org/2000/svg" width="88.39" height="100" viewBox="0 0 88.39 100">
  <path d="M3.51,39.46h.76c.65-.22.54-.54.55-.86l-1.09-.66c1-.64,3,.1,3.75-.88H10.9l1.16.56h2.12l1.22.63h2.22l.57-.32C17.6,31.45,17,25,16.42,18.41H42.54c.56,0,1.12,0,1.68-.07a.39.39,0,0,1,0,.21c.41,0,.82-.1,1.22-.1h6.46a1.76,1.76,0,0,1-.35-.15v-.6c.63-.27,1-.75,1.89-.83.75.43,0,1,.42,1.38a3.36,3.36,0,0,1-.44.2h17c.45,0,.9,0,1.48.07-.33,3.7-.66,7.3-1,11a7,7,0,0,1-.94.13H44.81a4.22,4.22,0,0,1-.61-.07l0,.16-15.15,0c-.09,0-.17.11-.35.23.32,3.53.64,7.12,1,10.75H44.25l0,.14c4.45,0,8.91-.07,13.36-.08H69.9c-1,11.42-2,22.7-3,34.06l-6.24,1.74-15.52,4.3a8.7,8.7,0,0,1-.89.15l0,.14L28.75,76.83l-7.29-2c-.52-5.79-1-11.52-1.56-17.37H31.14L32,66.15c1,.3,2.06.6,3.08.88q3.91,1.06,7.83,2.1c.44.11.9.14,1.35.21a.5.5,0,0,1,0,.21l2.51-.7.37-.22c0-.21,0-.41,0-.61-.8-.58-2.1,0-3.12-.42,0-.26-.11-.54-.17-.79,1.19-.58,2.52-.18,3.74-.3.72.41,1.85.61,1.84,1.35a.35.35,0,0,0,.12.24l7-1.94c.43-4.79.85-9.5,1.28-14.36L44.2,51.68l0,.14c-.86,0-1.73-.07-2.6-.07l-20.79,0c-.32.2-.67.39-1,.6H17.64l-2.36-1.24H13.1c-1-.64-.3-1.38-.51-2.11L11,48.09c-.55,0-1.27,0-2,0-1.55-.11-3.34.36-4.59-.53H4.22L8,90.05c.35.11.54.18.74.23Q26,95.11,43.31,99.91a4.21,4.21,0,0,0,2.08-.1q14.34-4,28.66-8l3-.84c-.36-.7-1.75-1.29-.66-2.37a7.41,7.41,0,0,0,2.15,0,8,8,0,0,1,2-.56q.33-3.83.68-7.63c-.27.37-1,.55-1.4.85H77.68c-.84-.4-.82-.81,0-1.23a18,18,0,0,1,3.6.16q2.92-32.83,5.83-65.63a1.42,1.42,0,0,0-.42.32H78.81l-1.17-.57H73.25c-.68.24-1.12.83-2.27.6L69.41,14c.5-.66,1.57-.19,2.36-.33a11.74,11.74,0,0,1,3-1.21c1.45-.2,1.92-.89,2.94-1.28h4.45a3,3,0,0,0,2-1.73l2.68.61.71.39L88.39,0H0Q1.76,19.76,3.51,39.46ZM50.81,66l.71.22c-.12.07-.27.2-.36.19a4.85,4.85,0,0,1-.75-.19Zm-8.74.53c.13.06.37.15.35.2a1.82,1.82,0,0,1-.35.41l-.39-.22ZM14.27,87.4l-1.51-.83c.13-.58.94-.35,1.52-.39C15.07,86.59,15.07,87,14.27,87.4Zm0-33.79H13.19c-.67-.27-.74-.62-.43-1s1-.19,1.48-.24C15.09,52.79,15.06,53.2,14.27,53.61Zm3.34,32q-1.2-.61,0-1.23Q18.81,84.95,17.61,85.56Zm18,.12c.09,0,.24.12.37.19a4.85,4.85,0,0,1-.75.19c-.09,0-.24-.12-.37-.19A4.85,4.85,0,0,1,35.59,85.68Zm-4.08,10c-1,.67-1.48.53-3.34-.86,0-.6,1.35-1.12,3.34-1.15Zm6-7h-1c-.84.47-.8.61.46,1.48a1.13,1.13,0,0,1,.09.28c0,.39,0,.78,0,1.07-2,.68-2.31-.42-3.33-.59V89l1.14-.67V87.1a2.27,2.27,0,0,1,1.59-.31l1.71.95C38.2,88.16,38.18,88.45,37.49,88.63Zm4.79,1.74c-.91-.08-1.23-.56-1.88-.82.51-.27,1-.55,1.51-.83C42.64,89.21,42.66,89.21,42.28,90.37ZM59.46,92c.87-.47.84,0,1,.33C59.88,92.37,59.29,92.07,59.46,92ZM48.74,88.63l-.39-.39.39-.22a1.63,1.63,0,0,1,.35.41S48.87,88.56,48.74,88.63Zm9.55,5.28c.41-.66,1.42-.25,2.13-.36C59.76,94.18,59.76,94.18,58.29,93.91Zm2.13-.36V92.32c1.27,0,1.33.7,2.3.87A4.41,4.41,0,0,1,60.42,93.55Zm20-42.8a2.49,2.49,0,0,1,2.2.09c-.36.2-.69.42-1.08.61a4.46,4.46,0,0,1-.75.22,5.2,5.2,0,0,1-.36-.5C80.4,51.08,80.44,51,80.44,50.75ZM73.21,87.4a1.9,1.9,0,0,1,.35.42c0,.05-.23.13-.35.2-.13-.14-.27-.27-.4-.4ZM76,1.41a4.14,4.14,0,0,1,.36-.53,5,5,0,0,1,1.86.84c-.18.47.36,1-.35,1.41-.7,0-.75-.2-.78-.5a.92.92,0,0,0-.34-.51C76.47,1.89,75.8,1.78,76,1.41ZM14.46,36.53c.09,0,.24.12.37.19a4.85,4.85,0,0,1-.75.19c-.09,0-.24-.12-.36-.19A4.46,4.46,0,0,1,14.46,36.53ZM6,11.51c.41-.41,1-.24,1.5-.3.55.35,1.37.55,1.56,1-.78.43-1.75,0-3.06.41Z" fill="#2a2a2a"/>
</svg>
