<svg xmlns="http://www.w3.org/2000/svg" width="88.28" height="100" viewBox="0 0 88.28 100">
  <path d="M0,.84C0,.59,0,.34,0,0H6.25L5.31.55c-.2.8.25,1.41,1,1.9V4.71l-1.53,1H1.36a4.2,4.2,0,0,1-.87.48ZM9.59,0H88.28q-3,33.57-6,67.12c-1.51-.67-1.73-2-3.63-2.66,0-.8,0-1.61,0-2.43,0-.08.19-.15.29-.23l.8-.45v-.64l-1.61-.82H73.55l-.94.51c-1.6,0-3.22.07-4.56,0h0c.11-1.36.23-2.72.35-4.08.21-2.34.43-4.69.64-7,.53,0,.93.08,1.32.09.12,0,.38-.15.35-.2s-.24-.38-.39-.39a2.6,2.6,0,0,0-1.24.12l1.05-11.52c.08-.91.16-1.83.25-2.75h0c.5-.05,1.1.13,1.48-.24s.24-.72-.43-1h-1c.27-2.89.54-5.79.79-8.69.16-1.94.26-3.88.39-5.81l-.28-.25c-.56,0-1.12-.05-1.68-.05q-11.46,0-22.93,0c-.91,0-1.83,0-2.75,0h0c-.55,0-1.1,0-1.65,0h-26c.34,3.75.66,7.33,1,11.07H41.45c.85,0,1.71-.06,2.57,0h0c5.13,0,10.26,0,15.51.06-.87,10.17-1.72,20.18-2.6,30.15H54.8l-1.16.6H50.4l-3-1.56c.65-.65-.65-.83-1-1.21V56.41l2.28-1.26c-1.77-1,1.33-1.39,1-2.32-.77-.39-1.12-1.1-2.65-1l-1.22.55-1.16-.54H42.67c-.77-.51-2.42-.74-1.47-1.78h4.55l1.77-1c-1-.33-.92-1-1.51-1.49a13.94,13.94,0,0,0-3.71.07l-.8.44-2.67.09c.05.13.71,1.61.71,1.61s-.31.19-.42.17a11.33,11.33,0,0,1-4.89-1.54l4.36-1.22c-1.05-.86-2.92-.88-4.08-1.56H31.36l-.85-.48a6.53,6.53,0,0,1-3.8.37l-.85-.47c-2.33,0-4.73,0-7.13,0a5.48,5.48,0,0,0-1,.17l-.79.43H11.4l-1.59.9,1,.65c.24.44-.35,1,.55,1.52h3c.94.21,1,.65,1.69.48l2-1.09H20.3L22,49.91c-.11.58.26,1.2-.32,1.8l-1.39.7c-1.07.11-2.09-.2-2.72.34v.62L20.3,54.9h2.58l1.71-1.2H27l1.29.57a2.26,2.26,0,0,1,2-.59l1.18.57,1.15-.58h2.22c.51.28,1.4.55,1.48.87.27,1.07,1.42,1.48,3.13,1.71a8.3,8.3,0,0,1,1.77.64L36.44,59.5v.59l-2.23,1.3c1.56.44.89,1.27,1.26,1.89l2,1.09c.08.29.27.58-.43.94h-5.3c0-.24,0-.48-.07-.71l1.64-.91-1.8-.83-.09-1c-.13-1.45-.28-2.91-.41-4.33a67.59,67.59,0,0,0-11.17.09q.76,8.55,1.54,17.19c.51.17.93.33,1.37.45L39.83,80c1.41.4,2.81.71,4.21,1.12,0-.06,0,.05,0,0,.49-.11,1-.26,1.49-.4q7.83-2.16,15.65-4.35l5.52-1.53c.16-1.73.32-3.42.47-5.1,1,.66,3.06.58,3.75,1.65v1l1.6.91c.54,0,1.16.12,1.72-.42V70.52l1.77-.92h5.59a7.23,7.23,0,0,1,.54-.85q-.95,10.65-1.9,21.31l-7.55,2.13Q59.07,96,45.41,99.8a4.48,4.48,0,0,1-2.54,0Q26.12,95.14,9.35,90.47L8,90l-.09-.87a0,0,0,0,0,0,0,6.37,6.37,0,0,0,.75-.2l-.4-.22-.41.13c-.09-.83-.18-1.66-.25-2.49C7,80,6.48,73.57,5.9,67.16c-.21-2.46-.44-4.91-.66-7.36a5.09,5.09,0,0,1,1.7.62h9l1.54-.94v-1.6c.34-.62,2.16-.87.74-1.69H15.67a29.31,29.31,0,0,0-2.55,1.59c-.25.2,0,.59-.6.79H11.44L10.27,58a3.05,3.05,0,0,1-2,.57L6.84,58H5.08l-1-10.49a3.13,3.13,0,0,0,1.3-.34c-.46-.45.34-1-.58-1.45H4c-.13-1.41-.26-2.83-.38-4.24C3,35.07,2.48,28.65,1.92,22.23L.63,7.77l.22.15V9.13c1.28.57,1.12,1.7,2.74,2.13l1.2-.6H7.94l4-2.15V7.27c.76-.43,1.9-.81.57-1.5H10.43c-.62-.34-1.42-.55-1.6-1l2-1.11V1.18C10.08.91,9.9.44,9.59,0ZM14.4,61.86a2.05,2.05,0,0,0,.34.41l.4-.22-.4-.4C14.62,61.72,14.38,61.81,14.4,61.86Zm-3.3.21c.54-.12,1.43.62,1.83-.2A1.5,1.5,0,0,0,11.1,62.07Zm1.58,26.71A5.83,5.83,0,0,0,12,89c-.41.18-.79.38-1.18.57a2.05,2.05,0,0,0,2.29,0C13,89.33,13.3,89,12.68,88.78ZM15.3,70a2,2,0,0,0-2.23,0A2,2,0,0,0,15.3,70ZM32,89l.4.22.71-.22c-.12-.07-.27-.2-.36-.19A4.85,4.85,0,0,0,32,89Zm-10,.62a4.85,4.85,0,0,0,.75.19c.09,0,.24-.12.36-.19l-.71-.22ZM16,55.44c.6-.36.56-.7-.16-1.2C15.14,54.79,14.81,55.18,16,55.44Zm-2.94-3.92a2,2,0,0,0,2.23,0c-.09-.28.23-.61-.44-.82a2,2,0,0,0-1.79.24Zm42.8,3.37c-.51,0-1.11-.12-1.48.22l-.26.78,1.93.73C56.79,56.11,56.84,55.5,55.88,54.89ZM54,38.72c2.59.22,2.59.21,3.23-.16l-1.35-.88Zm-.93,10.34.72.22.39-.22a4.58,4.58,0,0,0-.75-.19C53.38,48.86,53.23,49,53.11,49.06Zm-1.51-.22-.71.22c.12.07.27.2.36.19a4.85,4.85,0,0,0,.75-.19Zm-1.83-9.61c.13.07.28.2.37.19a4.85,4.85,0,0,0,.75-.19l-.4-.22Zm-6.66-5.38a6,6,0,0,0,.24.8c.81-.07,1.41.1,1.81-.26s.24-.71-.4-1c-.49,0-1.09-.12-1.48.22C43.23,33.68,43.11,33.77,43.11,33.85Zm-1.8,5h3.57c.13,0,.25-.14.29-.16l-2.49-1.59c-1-.07-1.46,0-1.8.29C41.05,37.86,40.53,38.38,41.31,38.86ZM38.1,44.45q1.2-.62,0-1.23Q36.9,43.84,38.1,44.45ZM69.79,54.59l-.4-.22-.71.22c.12.07.27.2.36.19A4.58,4.58,0,0,0,69.79,54.59Zm10-17.82c.12.07.27.21.36.2a5.89,5.89,0,0,0,.75-.2l-.4-.21ZM66.5,8.51l1,.69c3.44.74,5.45-.86,8-.34l2-.92c-.83-1-2.86-.86-3.87-1.56L72.54,7H70.42C69.32,7.67,67.31,7.59,66.5,8.51ZM8.63,56.43a2,2,0,0,0-2.23,0A2,2,0,0,0,8.63,56.43ZM6.45,52.05c.65.75,1.87.2,2.9.44l.89.59c.85-.44.88-.85,0-1.26A15.17,15.17,0,0,0,6.45,52.05Zm6.64-17.12a3.9,3.9,0,0,0-3.37,0A3.9,3.9,0,0,0,13.09,34.93Zm.19,7.77-.26.8a2.08,2.08,0,0,0,2.27,0A5,5,0,0,0,13.28,42.7ZM44,69.55h0c2.72-.74,5.44-1.44,8.23-2.18-.16-.45,0-.56.75-1.14l-.93-.62c.85-.49,1.83-.16,2.7-.27.53-.39,1.48-.6,1.71-1.23-.3-.8-1.84-1.13-2.67-1.77-.82.11-1.18.79-2.64.46l-2.78,1.93H45.74l-1,1.19,1.55.85c0,.56-1.18.63-1.43,1h-2.3c-.81.35-.48.82-.51,1.28l1.59.45A2,2,0,0,0,44,69.55Z" fill="#2a2a2a"/>
</svg>
