<svg xmlns="http://www.w3.org/2000/svg" width="91.35" height="100" viewBox="0 0 91.35 100">
  <path d="M15.4,10.47s0,0,0,0h0a1.4,1.4,0,0,0-.15.59c0,.05,0,.09,0,.13l0,0a1.69,1.69,0,0,0,.14.57,5.71,5.71,0,0,0,1.42,1.68s6.73,6.57,7.55,7.51a21,21,0,0,1,5.49,14.37,23.3,23.3,0,0,1-2.39,10.88,38.63,38.63,0,0,1-3.86,6.49l.22.16a7,7,0,0,1,1.45.08l.22-.16c.45-.33,1-.73,1.64-1.16a1.39,1.39,0,0,1-1.25-.33c.41-.4,1-.27,1.51-.25.09,0,.2.1.28.21L29.3,50.1l-.22,0v-.93l1.15.34c1.46-1,2.64-1.76,2.67-1.74a16.37,16.37,0,0,1-1.66,2,7.47,7.47,0,0,0,1.73.05c.56-.62,1.1-1.24,1.61-1.86.32-.38.6-.73.63-.74h0c.08,0,.17.12.58.72a10.85,10.85,0,0,1,1.69,4.41l0,.3-2.07.8c-3.71,1.44-7.13,2.86-9.44,3.92l-1.47.7a5.8,5.8,0,0,1,.7.39h4.4l.39.22c.14-.36.25-.65.28-.74a.54.54,0,0,1,.08-.17l.57-.24a4.82,4.82,0,0,1,.21.51,13.55,13.55,0,0,0,.73,1.62h1.92c-.16-.27-.32-.54-.46-.81a17,17,0,0,1-.83-2c2.15-.87,4.38-1.74,6.72-2.62l1.56-.58a38.33,38.33,0,0,1-.11,4.32,37.94,37.94,0,0,1-1.39,6.58A10.82,10.82,0,0,1,39,65.56a23.82,23.82,0,0,1-2.41-2.3h-.16l-1.23.63h-.3a23.38,23.38,0,0,0,2.32,2.34l.74.63c.09.09.12.08-2.35,1s-5.12,1.88-8.08,2.85c.55.55,1.77.45,2.58.79v.64c2.23-.77,4.36-1.59,6.49-2.51l1.08-.43a3.74,3.74,0,0,1-.25.69c-.14.33-.29.67-.44,1l.29-.16c.73.49.75.49.31,1.84L36.5,72c-.3.68-.64,1.38-1,2.09l0,0s-.05.07-.12.11c-.95,2-2,4-3.28,6.24-.56,1-1,1.8-1,1.8s-.47-.27-1-.61a30.81,30.81,0,0,1-7.91-6.73l-.28-.33,1.38-.38c2.05-.56,4-1.14,5.81-1.75a23.77,23.77,0,0,0-2.9.12c-.91-1,.2-1.36.95-1.76L26,71.2,23.49,72c-.14,0-.09,0,.3-.66a77.57,77.57,0,0,0,4.47-8.54,4.06,4.06,0,0,1-2.63.42c-1.26,2.37-2.66,4.79-4.44,7.63-.37.59-.71,1.13-.76,1.19s-.11.08-.35-.39a13.92,13.92,0,0,1-1.16-3.51A14.26,14.26,0,0,1,19,63.67a2.9,2.9,0,0,1,.26-.9l2.13-1h0l1-.64c-.83-.53-1.85-.08-3.07-.46l-1.22-.71,1-.64V58.21A113.52,113.52,0,0,1,7.42,69.05L7.6,69l-.28.23a30,30,0,0,0-4,3.93,17.87,17.87,0,0,0-2.94,5A8.13,8.13,0,0,0,.11,82c.13-.2,0-.41.08-.6l1.6-.88L3,81.09h.32A8.36,8.36,0,0,1,3,80.28c-.16-.72-.16-1.09,0-1.13s4.27-1,8.05-1.89L16.5,76c.87-.22,1.58-.38,1.6-.38s-.78,1.19-2.08,3a1,1,0,0,1,.71.33,1.41,1.41,0,0,1-1.14.28c-.62.86-1.31,1.85-2.08,2.91l-2.43,3.44c-.41.57-1,1.48-1.38,2l-.63,1-.69-.57a25.42,25.42,0,0,1-2.81-2.88A15,15,0,0,1,4,82.81l-2.7.75H.54a10,10,0,0,0,1.06,2c2.06,3,6.16,6.11,10.94,8.21a70.32,70.32,0,0,0,9.62,3.23A128.55,128.55,0,0,0,42.68,100c1.11,0,2.59,0,2.65,0a36.77,36.77,0,0,0,2-3.71A110.54,110.54,0,0,0,52,85.38L51.4,85v-1.3l1.34-.6c.37-1.11.71-2.2,1-3.25-1.15-.21-1.32.68-2.33.61h-.29c-.4,1.42-.78,2.66-1.32,4.39.35.19.45.45.35.92l-.71.2,0,.15c-.37,1.15-.68,2.1-.7,2.1a.92.92,0,0,1-.2,0,63.85,63.85,0,0,1-12.3-3.47c-1.06-.42-2.57-1.1-2.66-1.18a18.46,18.46,0,0,1,2-1c6.88-3,14-6.43,16.47-7.9a2.1,2.1,0,0,1,.56-.27,41.57,41.57,0,0,1-1,4.24l1.48-.09.89-.5h.22c.05-.2.11-.4.16-.6.38-1.61.72-3.49,1-5.59-.42,0-.85,0-1.27,0a5.56,5.56,0,0,1-1.07,0c-.09.54-.16,1-.17,1l-1-.27a39.2,39.2,0,0,1-7-3,30.39,30.39,0,0,1-3.54-2.18l1.39-.74a88.08,88.08,0,0,0,8.27-4.86c.93-.62,2.32-1.62,2.62-1.89l.24-.18v.63a82.18,82.18,0,0,1-.74,10.32h1.93l.44-.23q.36-2.76.61-6c.07-1,.11-3.51.1-5.57l-.19,0-1-1.15,1.12-.59c0-.28,0-.53,0-.72a56.66,56.66,0,0,0-.76-7.1,2.58,2.58,0,0,1-.06-.48A292.11,292.11,0,0,1,90,40.59l1.38-.21-.21-.33a45.72,45.72,0,0,0-3-4.28,36.23,36.23,0,0,0-10.75-9C71.42,23.51,63.75,20.92,54,19,52.21,18.64,48.21,18,45,17.45l-.32-.56c-1.78-3.15-3.75-7-4.9-9.69a50.7,50.7,0,0,1-2.21-6.09C37.26.08,37.23,0,37.07,0h0A95.75,95.75,0,0,0,27.9,3.3,56.93,56.93,0,0,0,17.35,8.6,9.52,9.52,0,0,0,15.4,10.47ZM4.84,77.6,3,78.1c-.11,0-.12,0-.08-.24C3.3,75.64,5,72.73,7.36,70.28a19.56,19.56,0,0,1,5-3.81l2.35-1.32,1.79-1c.05,0,0,.13,0,.66s-.14,1.12-.17,1.62a10.6,10.6,0,0,0,.84,5,.63.63,0,0,0,.23-.23c.82.43.87.81.2,1.21,0,0,0,.09.07.14a10,10,0,0,1,.52,1.15C18,73.81,8,76.74,4.84,77.6Zm10.34,2.88.4.22-.4.4c-.12-.07-.36-.15-.34-.2S15.06,80.62,15.18,80.48Zm-5.09,8.93-.27-.2.44-.64c1.42-2,3.21-4.31,7.1-9L20,76.35h0l.48.54a28.17,28.17,0,0,0,7.1,5.81,4.71,4.71,0,0,1,.81.53c-.1.08-9.35,3.36-13.63,4.85-2.4.84-4.39,1.52-4.4,1.52A3.19,3.19,0,0,1,10.09,89.41Zm12.32-2.48a5.74,5.74,0,0,1-.74.2c-.1,0-.25-.13-.37-.2l.72-.21Zm.64,8.45-.23-.06c-.54-.15-4.37-1.49-5.39-1.9-1.25-.5-2.55-1.11-3.52-1.62a14.23,14.23,0,0,1-2.6-1.65s2.1-.58,4.6-1.26c6.62-1.8,10.3-2.84,12.71-3.6a6,6,0,0,1,.83-.23s-1.06,1.74-2.94,4.71L24.5,93c-.3.48-.76,1.24-1,1.66ZM48.3,89.49c.06.15-2.39,7-3.28,9.11-.2.48-.27.6-.38.59s-3.81-.52-6-.83c-3.76-.58-10.09-1.68-11.68-2l-.36-.07,2.25-.52c4.85-1.09,7.18-1.68,9.54-2.4a68,68,0,0,0,8.91-3.44,6.51,6.51,0,0,1,1-.39Zm-14.69-4a48.75,48.75,0,0,0,5.61,1.74,64,64,0,0,0,8.49,1.47c.34,0,.52.06.46.1s-2.33.8-4,1.32c-2.6.82-10.55,3.16-17,5l-2.29.65a1.21,1.21,0,0,1-.65-.16s.37-.5.8-1a89.7,89.7,0,0,0,6.15-8.26c.5-.76.92-1.38.92-1.39S32.79,85.22,33.61,85.52Zm20.5-10,.39.22-.4.39c-.12-.06-.36-.15-.34-.2A1.82,1.82,0,0,1,54.11,75.57Zm-13-48.19a12.85,12.85,0,0,1-.09,1.3l0,.15-.79-.25c-1.62-.52-4.25-1.29-6.5-1.92-1.29-.35-2.33-.67-2.33-.7A35.5,35.5,0,0,1,34,23.28a72.32,72.32,0,0,1,5.81-4.51,5.72,5.72,0,0,1,.55,1.68A24.47,24.47,0,0,1,41.11,27.38Zm1.09,5.37c.06-.22.13-.37.17-.37.21,0,2.18,1,3.66,1.71s3.41,1.77,3.51,1.86-.71.39-1.6.83c-2.85,1.42-5.28,2.77-7.82,4.31l-1.35.8c-.06,0-.05-.06.36-.8A31.64,31.64,0,0,0,42.2,32.75ZM30.78,29.38c-.05-.42-.09-.79-.08-.8a31.84,31.84,0,0,1,3.29.77c1.72.48,5.38,1.71,5.38,1.8s-.4.36-.89.79c-2,1.65-3.89,3.39-6.17,5.6-.68.65-1.26,1.18-1.29,1.18s0-.1,0-.22A34.17,34.17,0,0,0,30.78,29.38Zm-2.94-5.75A31.51,31.51,0,0,0,20,14.81a6,6,0,0,1-.74-.59,3.21,3.21,0,0,1,.57.18c.57.2,1.32.42,2.19.67l2,.52,1.68.44c.11.11,1.64,5,2.15,6.87a12.47,12.47,0,0,1,.33,1.32A3.8,3.8,0,0,1,27.84,23.63Zm1.9.74A49.47,49.47,0,0,0,27,17c-.16-.33-.28-.62-.3-.68h0a5.6,5.6,0,0,1,.82.13c2.57.58,7.18,1.45,10.13,1.95a4,4,0,0,1,.9.2,1.44,1.44,0,0,1-.41.26c-.5.25-2.51,1.45-3.18,1.9a29,29,0,0,0-4.28,3.42L29.9,25A5.72,5.72,0,0,1,29.74,24.37ZM33,46.69l-.4-.21.4-.4c.12.07.36.15.34.2A1.43,1.43,0,0,1,33,46.69ZM32.66,46c-1.44,1-3.62,2.68-4.89,3.69s-1.38,1.09-1.23.86a25.74,25.74,0,0,0,3.3-6.65,2.67,2.67,0,0,1,.3-.78,6.87,6.87,0,0,1,.79.4,16.85,16.85,0,0,1,2.6,1.75A4.5,4.5,0,0,1,32.66,46Zm3.1-2.24L34.91,43a11.09,11.09,0,0,0-2.81-2.07,4.13,4.13,0,0,1-.73-.42c0-.12,2.59-2.47,4.57-4.17,1.42-1.22,4.42-3.63,4.46-3.58a29.22,29.22,0,0,1-.78,2.92,37.34,37.34,0,0,1-2.68,6.14c-.24.43-.61,1.05-.8,1.39Zm1.51,2.33c-.35-.7-.41-.86-.33-.94.29-.26,4.69-2.77,7.47-4.26,1.88-1,4.81-2.49,4.86-2.46s-2,3-3.28,4.6c-1.49,2-4.12,5.27-5.93,7.42-.76.89-1.41,1.63-1.44,1.65s-.06-.21-.06-.56A12.65,12.65,0,0,0,37.27,46.13ZM47,49.33l1.91-.62c.73.33-.25.93.16,1.3-.56.5-1.16.33-1.65.37C47,50.19,46.77,49.94,47,49.33ZM30.91,55.38l.4.22a4.85,4.85,0,0,1-.75.19c-.09,0-.24-.12-.36-.19Zm21.57,18,.35.07-.49.28c-2,1.11-8.62,3.87-15.39,6.4-1,.36-2,.72-2.13.8a1,1,0,0,1-.35.1s.27-.54.62-1.19A74.83,74.83,0,0,0,39.86,69c.12-.29.2-.55.21-.56a5,5,0,0,1,.82.44A46.17,46.17,0,0,0,52.48,73.37ZM53.9,56.93a4.29,4.29,0,0,1,0,1c-.13,0-2.56-1.43-4.3-2.52-1.05-.67-2.75-1.78-3.85-2.53a1.35,1.35,0,0,1,0,.33l-1.21.35a91.76,91.76,0,0,0,8.9,4.93c.56.25.62.15-.66,1a62.52,62.52,0,0,1-8.35,4.65s0,.07.06.1-.24.21-.35.2a2.32,2.32,0,0,0-.37,0l-1.39.63c-.74.33-1.36.59-1.38.59a4,4,0,0,1,.18-.84,44.22,44.22,0,0,0,1.62-10.63c0-.8,0-1.17,0-1.36l.33-.12.28.15a1.87,1.87,0,0,1,.67-.71h.68c2.65-.9,5.49-1.81,8.42-2.7A63.11,63.11,0,0,1,53.9,56.93Zm6.31-11.78c-6.93,1.92-12.29,3.63-18.54,5.93-.69.26-1.28.47-1.33.47s-.16.07,1.4-1.36A66.59,66.59,0,0,0,51.9,38.5l.53-.81.74.48A57.35,57.35,0,0,1,58.4,42c.86.71,2.52,2.21,2.85,2.57l.19.2ZM76.07,28.94a3.14,3.14,0,0,1,.86.42A50.74,50.74,0,0,1,87.05,37c.81.78,2.79,2.84,2.76,2.86l-1.51.12c-3.1.23-6.62.67-10.31,1.28h.61c.75.26.45.59.53.86a2.14,2.14,0,0,1-1.81.23c-.57-.2-.41-.48-.46-.9-3.57.61-7.28,1.37-10.93,2.25l-1,.23s.56-.59,1.3-1.31c4.6-4.43,6.71-7.23,9.19-12.22C75.74,29.62,76,29,76.07,28.94ZM73.3,31.12c-.91,1.3-2.24,3-5.25,6.81-1.59,2-3.38,4.25-4,5S63,44.33,63,44.33a5.48,5.48,0,0,1-.42-.61A31.14,31.14,0,0,0,56.41,37c-.45-.38-.95-.79-1.12-.91a2.45,2.45,0,0,1-.3-.25s2.57-1.15,4.52-1.94c3.42-1.39,8.08-3.06,11.58-4.13,1.83-.58,3.78-1.14,3.81-1.11A27,27,0,0,1,73.3,31.12ZM58.12,22.28h0c.14,0,2.89.76,4.33,1.18a88.89,88.89,0,0,1,10.3,3.77l1.11.5-.77.18a112.76,112.76,0,0,0-17.45,5.4c-.44.19-.83.34-.86.34a3.9,3.9,0,0,1,.32-.78A30.67,30.67,0,0,0,58,22.8C58,22.51,58.08,22.28,58.12,22.28Zm-2.8-.66c.09,0-.22.21-1.24.66a74.65,74.65,0,0,0-6.91,3.52,10.47,10.47,0,0,0,1.37,0c.58.26.69.57.43.92.93-.6,1.84-1.17,2.57-1.6,2-1.24,5.37-3.09,5.43-3a11,11,0,0,1-.33,2,37.65,37.65,0,0,1-3.81,8.74,9.52,9.52,0,0,1-.64,1,5.89,5.89,0,0,1-.91-.48,48.93,48.93,0,0,0-5.93-2.91c-.6-.25-1.13-.47-1.15-.5a53.28,53.28,0,0,1,4.44-3,22.46,22.46,0,0,1-2.78.15v-.51l-1.69,1.09c-.77.51-1.42.94-1.44.94s0-.44,0-1a21.09,21.09,0,0,0-1.63-8.23,1.72,1.72,0,0,1-.18-.49S47.15,20,50,20.5C52.09,20.91,55.14,21.54,55.32,21.62Zm-15.58-10c.06,0,.13.14.32.55.51,1.13,2.11,4.19,2.51,4.78,0,0,0,.07.06.1-3.3-.52-6-1-8.62-1.39a1.55,1.55,0,0,1,.33-.21A30.34,30.34,0,0,0,39,12.3l.73-.61A0,0,0,0,1,39.74,11.66ZM28.62,4.2c2.07-1,7.76-3.33,8.18-3.4h0s.07.44.13.94a31.9,31.9,0,0,0,1.47,6.37c.56,1.66.56,1.57-.09,1.37-1.54-.42-8.46-1.62-13.47-2.31-.8-.11-1.48-.21-1.48-.23S27,5,28.62,4.2ZM22.81,7.76a89.72,89.72,0,0,0,15.72,3l.94.09a5.91,5.91,0,0,1-1,.5c-2.15,1.08-4.51,2.39-6.14,3.41L32,15c.14.12.29.25.46.38v.3c-.35.25-.8.36-2,.22l-1.38-1.15v-.3a1.39,1.39,0,0,1,.21-.11l-.73-.72C25.89,11,23.8,9,23,8.27l-.78-.71Zm-1.41.41L21.6,8l2.13,2.66c1.17,1.47,2.35,2.91,2.61,3.22s.38.48.43.56c-1.49-.26-3.15-.56-4.37-.83a36.88,36.88,0,0,1-4-1.07l-.47-.18v-.15C17.94,11.22,19.22,9.71,21.4,8.17Zm1.44,48.9a49.58,49.58,0,0,0,7.21-6.13l.5-.51c.45.16.9.32,1.35.44A64.65,64.65,0,0,1,24,57.74,6.41,6.41,0,0,1,22.84,57.07Z" fill="#2a2a2a"/>
</svg>
