<svg xmlns="http://www.w3.org/2000/svg" width="133.54" height="100" viewBox="0 0 133.54 100">
  <path d="M32.15,38.81l-1.1-.42-.12-.21c-.15-.25.14-.76.23-1.15.38.12.88.14,1.12.39a12.08,12.08,0,0,0,1.3,1.2A2.21,2.21,0,0,1,32.15,38.81Zm31.9,20.36a3.45,3.45,0,0,0-1.57-.48l2,1.16A1.25,1.25,0,0,0,64.05,59.17ZM11.53,20.94c6.81-6.28,14.76-10.86,23.24-14.62A68.24,68.24,0,0,1,53.12.57c7.52-1,14.93-.9,22,2.36,3.72,1.72,6.57,4.21,8,7.81l-.95.49c-.84.11-1.79-.2-2.67.25,0,1.44,0,2.93,0,4.42,0,.07.24.14.6.34.46-.53.44-1.13,1.26-1.54s-.33-1.19.78-1.61a15,15,0,0,1,1.64,0c.06.35.12.71.17,1.08a20.09,20.09,0,0,1-1,8.91l-1.06.58-1.73-1.35c-1,.24-.7.59-.8.87l2.31,1.34c0,.52,0,1,0,1.56-.13.26-.25.52-.39.77A34.54,34.54,0,0,1,60.4,43.65a47.58,47.58,0,0,1-13.83,2.29c-4.82.05-9.52-.63-13.21-4.14A8.67,8.67,0,0,1,32,40.08H33A4.34,4.34,0,0,1,35.43,42c.5-.39,1.44-.59,1.73-1.35a17,17,0,0,0,6.3.87,39.86,39.86,0,0,0,24.19-8.82,26.6,26.6,0,0,0,7.67-9.21l1.31.73L78.47,24c-.64-.57.32-1.17-.73-1.66l-.89,0-1.22.5c.23-.54.45-1.1.64-1.67a15.77,15.77,0,0,0,.6-2.53,8.64,8.64,0,0,0-.36-4.26L77,14V10.2c-.82-.29-1.82-.17-2.44-.65a3.12,3.12,0,0,0-2.16-.8c-.85,0-1.21-.78-2.49-.54l-1.13.54A29.5,29.5,0,0,0,59,8.11a60.34,60.34,0,0,0-21.57,6.21,2,2,0,0,0-1.23.16A.61.61,0,0,0,36,15q-2.88,1.44-5.68,3.06A59.08,59.08,0,0,0,15.91,29a25.35,25.35,0,0,0-4.15,5.87.81.81,0,0,0-.23.28h.1a16.39,16.39,0,0,0-1.55,5.51v.24a1.68,1.68,0,0,0-.38-.06l-1.52.83a2,2,0,0,0,1.86.17,11.6,11.6,0,0,0,.34,2.91,5.29,5.29,0,0,0-1.3-.3,3.28,3.28,0,0,0-.92.29c.06.25.13.52.21.86h2.26a15.19,15.19,0,0,0,2.69,4.8,31.06,31.06,0,0,0,3.81,3.88,10,10,0,0,0-3.19.18c-.07.19-.13.38-.28.81l2.17.88c.53.06,1.51-.26,2.25.2l.27,1.41,1.57.79c.48-.37.55-.84,1-1.19.82.64,1.64,1.27,2.45,1.93s1.69,1.41,2.54,2.12L24.74,62c.44.46-.34,1,.5,1.42.61.16,1.49-.07,1.74.45-.82.42-1.68.85-.46,1.47a3.22,3.22,0,0,1,2.18-.57L31,65.88l.66-.37h0l.33-.18,1.16.55a6.72,6.72,0,0,0,2.68-.2V63.26q4.05-2.19,8.08-4.43A4.16,4.16,0,0,0,45,57.73a22.06,22.06,0,0,1,7.27-6l.7-.34c4.32-1.87,7.18-.25,7.48,4.12h-.13l-3.21.89,2.21,1.29c0,.32.11.64-.48.84a5.89,5.89,0,0,0-2.21.18c.1-.55.18-1.1.23-1.64.13-1.16-.48-1.65-1.5-1.13a14.55,14.55,0,0,0-2.73,1.71c-.64-.25-1-.73-1.65-.79L48.33,58c2.11-.27,3.22.25,4.28-.37a6.3,6.3,0,0,0-.77.78c-.45.56-.88,1.13-1.28,1.72A2.33,2.33,0,0,0,49,59.78c-1,.1-.83.52-.8.9.39.4,1.21.23,1.74.4A25.77,25.77,0,0,0,45.9,74a41.35,41.35,0,0,0,.86,4.57c.39,1.31,1.24,1.4,2.05.3a10.89,10.89,0,0,0,1.43-2.47C52.2,71.3,54.14,66.15,56,61h7.22l1.3-.73a3,3,0,0,1,0,1.09c-1,4.19-2.09,8.34-3.05,12.52a24.62,24.62,0,0,0-.29,3.86l.38.14a8.84,8.84,0,0,0,.87-1.26c3.37-7.34,6.77-14.67,10.06-22,.49-1.1.91-2.23,1.31-3.37a1.18,1.18,0,0,1,0,.26c0,.07.27.21.35.2.27,0,.7-.13.71-.22,0-.27.27-.6-.53-.85a1,1,0,0,0-.43.24c.35-1,.69-2.07,1-3.11s.77-1.6,1.74-1.68a31.87,31.87,0,0,1,5.16-.21c1.41.1,1.72.83,1.24,2.19-1,2.89-1.84,5.83-1.14,8.92.41,1.82,1.07,3.59,1.72,5.71a11.3,11.3,0,0,0,.81-.95c2.21-4,4.51-8,6.57-12.14a32,32,0,0,0,1.85-5.68A2.25,2.25,0,0,1,94.93,42a26.45,26.45,0,0,1,4.78-.19c1.58.16,1.9.84,1.34,2.34-1.17,3.16-1.86,6.39-.93,9.69a37.62,37.62,0,0,0,2.41,5.73c.11.22.91.33,1.26.18a27.69,27.69,0,0,1,12.85-2.25c6,.38,11.18,2.38,14.59,7.55,1.12,1.68,1.56,3.81,2.31,5.74v2.08c-.09.29-.21.57-.27.86A8.7,8.7,0,0,1,128,80a5.1,5.1,0,0,1-1.88.06,6.79,6.79,0,0,1,1.11-1.27c3.7-2.64,4.49-6.35,2.13-10.25a11.44,11.44,0,0,0-4.65-4.26c-4.74-2.45-9.81-2.78-15-2.17a53.06,53.06,0,0,0-5.48,1.26c.29,1,.5,1.79.69,2.54a8.15,8.15,0,0,1-.78,6.78,16.13,16.13,0,0,1-10.5,6.92c-2.38.54-4-.95-3.93-3.41a6.7,6.7,0,0,1,.16-1.41c.87-4.26,3.5-7.41,6.6-10.22a1.59,1.59,0,0,0,.5-2.17c-1-2.6-1.9-5.29-2.81-8a3.07,3.07,0,0,1-.11-.36,5.32,5.32,0,0,0,2.52.82c.62-.63.67-1.25,1.58-1.61-1.11-.64-2.44-1.18-2.69-2.13-.9.12-1.88-.21-2.65.22a2.43,2.43,0,0,0,0,2.06,5,5,0,0,1,.57.27l-.39.67c-1.89,3.27-3.66,6.62-5.72,9.78A4.82,4.82,0,0,0,86.65,69v0l-.09,0c-.84.1-1.78-.19-2.79.3.58.3,1.11.63,1.72.93h1.14A1.67,1.67,0,0,0,87,70c1.26,4.53-.13,8.44-3.89,10.84a17.43,17.43,0,0,1-1.9,1c.27-.16.47-.33.43-.58-1.49-1.11-1.49-1.11-3.35-1.1v1.39l.57-.3.92,1.23c-1.09.45-2.21.84-3.31,1.22a9.9,9.9,0,0,1-3.61.34c-2.48-.1-3.38-1.87-2-3.94a31.4,31.4,0,0,1,2.06-2.69c2.09-2.6,4.18-5.21,6.31-7.79a1.82,1.82,0,0,0,.24-2.34A30.93,30.93,0,0,1,76.09,58a4.6,4.6,0,0,0-.33-.82c-.23.51-.4.86-.56,1.21-2.34,5.13-4.56,10.32-7.07,15.37a102.47,102.47,0,0,1-5.75,9.88c-1,1.5-2.46,2.78-4.5,2.12s-2.43-2.5-2.57-4.31,0-3.51,0-5.26a2.72,2.72,0,0,0-.76,1.07c-1.06,2.23-2.1,4.48-3.19,6.7a11.32,11.32,0,0,1-1.27,2,4.6,4.6,0,0,1-7.64-.25,19.06,19.06,0,0,1-2.89-13.57c.29-2.26.8-4.49,1.27-7-2.37,1.38-4.61,2.66-6.82,4a1.11,1.11,0,0,0-.16,1,21.87,21.87,0,0,1,1.1,11,22,22,0,0,1-16,18.19c-1,.27-2,.48-3,.71H12.26c-.29-.08-.58-.2-.87-.25a7.71,7.71,0,0,1-6.95-7.51A14.69,14.69,0,0,1,8.85,80.3a48.76,48.76,0,0,1,10-7.66c1.94-1.16,3.94-2.2,5.92-3.3l1.41-.81c-1.11-.86-2.05-1.62-3-2.34l-2.1-1.54A8.69,8.69,0,0,1,22.21,64c.68-.31.61-.68.1-1a13.32,13.32,0,0,0-3.57,0c-3.46-2.53-6.92-5-10.25-7.74a23.1,23.1,0,0,1-8.16-12A9.78,9.78,0,0,1,0,40.78a1.79,1.79,0,0,0,.65-.09c1.56-.62,3.75-.75,4.61-1.79,1-.13,2,.19,2.61-.16.75-.68-.06-1-.77-1.37.5-.36,1.39-.64.92-1.44,0-.16-1.17-.22-1-.74-.29-.61,1.47-.66.95-1.57l-1.71-1c-.1-.53.89-.51.43-1l-.62,0h0c-2.2.3-2.23,1.09-2.84,1.8H1.94A28.71,28.71,0,0,1,4,29.59a8.83,8.83,0,0,0,3.47-.29,13.17,13.17,0,0,0-3.14-.22c.61-.91,1.27-1.79,2-2.64a2,2,0,0,0,1.87-.15c-.09-.32.34-.77-.7-.84l-.66.36c.77-.91,1.58-1.8,2.42-2.67.52-.52,1-1,1.58-1.51h.78A4,4,0,0,1,11.53,20.94ZM5.71,46.49C4.52,46.15,5.32,45.3,4.23,45c-.84.11-1.79-.21-2.55.21l-.21.68,2.15,1H4.86C5.4,46.88,6.08,46.59,5.71,46.49Zm93.63,20a8.74,8.74,0,0,0-3.1,3.28.11.11,0,0,0,0,.09c-1.18,1.93-2,4.18-1.84,5.51C98.35,74.64,101.08,69.71,99.34,66.46ZM98.2,57.33a2.9,2.9,0,0,0-.9.2c-.29.4-.25.75.46,1a13.07,13.07,0,0,0,3.91-.29C100.43,57.91,99.34,57.59,98.2,57.33Zm-5.5-12a4.46,4.46,0,0,0,.74.19c.09,0,.24-.12.37-.19l-.72-.22ZM75.25,79.77c2.82.07,6.87-4.71,6.34-7.43Zm-30.4-20.9c.14.26-.23.61.49.82a2,2,0,0,0,1.76-.25v-.6A2,2,0,0,0,44.85,58.87Zm-1.08,4.28c.12.06.27.2.36.19a6.33,6.33,0,0,0,.75-.19c-.12-.07-.27-.21-.37-.2A5.74,5.74,0,0,0,43.77,63.15Zm-20,9.21c.12.07.27.2.37.19a4.46,4.46,0,0,0,.74-.19l-.39-.22ZM16,81.07a13,13,0,0,0-3.37,6.79c-.56,3.37,1.15,5.09,4.53,4.53a4,4,0,0,0,.5-.11c6.19-1.74,10-5.92,11.83-11.9a15.26,15.26,0,0,0-.14-9.16C24.39,74.15,19.74,77,16,81.07Zm4.53-19.42c1-.08,1.56.09,2-.27s.24-.71-.4-1c-.5,0-1.1-.12-1.57.29ZM11.35,23.1a2.11,2.11,0,0,0-1.85,0c-.36.41-.3.76.42,1.09C10.2,23.73,11.26,23.64,11.35,23.1ZM68,38.68a1.85,1.85,0,0,0-.34-.42l-.4.22.4.4C67.8,38.81,68,38.73,68,38.68ZM76,30l-.4-.22L74.9,30c.13.07.28.2.37.19A4.85,4.85,0,0,0,76,30Zm3.34-10.73a4.6,4.6,0,0,0,.39.51,2,2,0,0,0,1.83-.26c0-.59,0-1.19,0-1.79,0-.07-.23-.14-.44-.27-.88.4-.71,1.19-1.76,1.52C79.28,19,79.31,19.15,79.36,19.24Zm-52.1-6.57a2.27,2.27,0,0,0,.41.41c.34.22.74.4,1.11.6.64-.3.68-.65.15-1.22a5.33,5.33,0,0,0-.75,0C27.87,12.52,27.57,12.6,27.26,12.67Zm-7.8,3.08.4.4c.12-.07.37-.15.35-.2a1.9,1.9,0,0,0-.35-.42Zm-5.81,3.88c.43.59-.35,1.31.52,2H16.1c-.82-.77.28-1.06.64-1.28l-1-1C14.47,19.15,14.06,19.31,13.65,19.63Z" fill="#2a2a2a"/>
</svg>
