<svg xmlns="http://www.w3.org/2000/svg" width="100.15" height="100" viewBox="0 0 100.15 100">
  <path d="M38.27,34.57a8.8,8.8,0,0,0,3-.19l.15-.44-2.1-1.17c0-.78-.34-1.28.22-1.74a1.77,1.77,0,0,0,.21,0h.31c1.2,0,2.41,0,3.61,0,.11.32.66.54,1.13.8,0,.37-.31,1,.05,1.15,1.24.62.91,1.78,2.75,2.19a3,3,0,0,1,2.21-.55l1.12.57,2.77-1.51c-.2-.48.39-1-.39-1.45-1.55-.23-1.69-.31-1.77-1.05l.25-.14c1.08,0,2.15,0,3.22.09,4.48.37,6.52,2.63,6.61,6.94.06,3.22-1.22,5.77-3.58,7v-.38c-.74-.49-1.78-.78-2.11-1.38-.17-.52.62-.7,1.1-1,0-.78,0-1.59,0-2.4,0-.08-.21-.16-.52-.37-1.24.37-1.7-.34-2.46-.73a2.87,2.87,0,0,0-1.47-.53L50.69,39c-.72,1.22.2,2.17-.83,3-.59.05-1.2-.12-1.59.25-.56.57.2.9.91,1.26l-1,.65c0,.61-.29,1.26.15,1.87-2.88,0-5.75,0-8.62-.09a2,2,0,0,1-1.36-1.44c0-.9,0-1.81-.05-2.71a3.7,3.7,0,0,1,.51.29c.16-.51,1.37-.55,1.35-1.11a5.76,5.76,0,0,0-1.87-.19Q38.27,37.65,38.27,34.57ZM57.82,69h0l-.61.08c-.89.07-1.79.12-2.69.17-.07-.09-.16-.18-.24-.27l-.39.22.07.07-1.43.06A1.32,1.32,0,0,0,52,69c-.57,0-1.38-.19-1.52.38-3.64,0-7.3-.05-11-.07-.43,0-1.21-.87-1.22-1.34,0-1.84,0-3.68,0-5.51a4.73,4.73,0,0,1,.45-.23H40.9c.78-.41.83-.81,0-1.21l-1.15.6a14.2,14.2,0,0,1-1.46,0c0-1.07,0-2.13,0-3.2l.79-.9a4.26,4.26,0,0,0-.79-.16c0-1.11,0-2.23,0-3.34,0-1.44.84-1.54,1.92-1.53,2.7,0,5.39,0,8.09,0v.07c2.69,0,5.39-.13,8.08,0,4.5.27,7.45,3.21,7.64,7.39C64.22,64.85,62.12,68.33,57.82,69ZM40.34,55.16a4.58,4.58,0,0,0-.75-.19c-.09,0-.24.12-.36.19l.72.22Zm15.74,4.13c-.58-.7-1.69-1.41-1.41-2.35,0-.06-.24-.14-.4-.23H50.78c-.3.48-1.78.6-1.45,1.69l1.48.78c1.78-.78,2-.8,2.87-.33v.61A2,2,0,0,0,56.08,59.29Zm4.28,8.16a2,2,0,0,0-2.23,0A2,2,0,0,0,60.36,67.45Zm.9-3.58a1.66,1.66,0,0,0-.35-.42l-.39.22.39.4C61,64,61.28,63.92,61.26,63.87Zm1.32-7.39c0-.21,0-.32,0-.41a3.39,3.39,0,0,0-.37-.5,4.62,4.62,0,0,0-.74.22c-.39.19-.72.41-1.08.61A2.46,2.46,0,0,0,62.58,56.48ZM48.91,0H84.54A18.22,18.22,0,0,1,88.3.41l-.14.07A2,2,0,0,0,89.7.75a14,14,0,0,1,7.63,5.42l-.67-.37a1.39,1.39,0,0,0-.38,0l-.81.44-3.57.11c-.21.16-.39.24-.39.32,0,.81,0,1.61,0,2.69a33,33,0,0,0,6.76-1.71,17.07,17.07,0,0,1,1.83,7.92c0,5.92,0,11.83,0,17.75-.62-.11-.91-.51-1.34-.57H94.2l-2,1.11c-.81.42-2.2-.36-2.87.49.88.14,1,.84,2.24.82s1.38-1,3.47-.37l1.38,1h2.4l1.27.71V41l-.24-.25-.39.22.39.4.24-.11c0,.66,0,1.31,0,2a2.26,2.26,0,0,0-.78.29,2.45,2.45,0,0,0,.78.28V55.6a1.92,1.92,0,0,0-.57.29,3.86,3.86,0,0,0,.57.12q0,7.18,0,14.37a1.82,1.82,0,0,0-.45-.08c-.53.36-.55.7,0,1l.49.09c0,.8,0,1.6,0,2.4l-.5,0-.88-.49h-2.2l-1.16-.6H89.84l-1.18.58c-1.27.25-1.58-.49-2.91-.64h-6l-1-.53H75.38c-.63.13-1,.81-2.2.56L72,72.05H69.1a11.9,11.9,0,0,0,3.53-5.94c1.58-6.16-.12-15.6-8.54-17.64-.11,0-.18-.25-.34-.51.53-.34,1-.69,1.58-1a10.78,10.78,0,0,0,4.72-5.73l1.53.84c-.42.53-1.37.63-1.22,1.13a10.58,10.58,0,0,0,3.44-.3c-1.58-.51-1.16-1.74-3-2.16h-.54a15.81,15.81,0,0,0,.43-6.08,14,14,0,0,0-.39-2.12c.87.91,1,1.81,2.3,2.32,1,.39,2.09.64,3.38,1,.87-.42,2.36.39,3.33-.4,0-.3-.17-.62.76-.93h4.46c.32-.87,2.22-.26,2.57-1a.61.61,0,0,1,.4-.74L89,32.63c.45-.49.37-.84-.3-1.12-.52,0-1.13.12-1.53-.27V29.91l.92-.51-1.44-1L85.5,29H82.82c-.12-.33-.22-.61-.34-.92L81,27.23c-1.61-.09-3.24.07-5.22-.12.84-1-.82-1.23-1.57-1.75-.53,0-1.12-.08-1.48.26L72.44,27l-2.26,1.25,2.36,1.05v2.25l-2.34.84a10.11,10.11,0,0,0-6.89-7.21,1.16,1.16,0,0,0,.38-.79,9.46,9.46,0,0,1-3-.88H56.41l-1-.57h-4c-1.33-.3-.88-.66-1-.94l-1.65-.92-1.61.77c-.06.71-.1,1.1-.1,1.08l-1,.73c-4.22,0-8.43,0-12.65,0h-4V39.3c-.28.58,0,1.16-.11,1.73l.11.06V51.93a7.56,7.56,0,0,0-3.08.09l1.11,1c1,0,1.58,0,2,0V74.74h0v1h0v.75c7.05,0,14,0,20.82,0a1.46,1.46,0,0,0,.54.88c.8.55.53,1.41,1.88,1.74V82.8a16.06,16.06,0,0,0,4.93,1.66l1.15-1.34h1.17L61.4,84c.06.48.11,1,.15,1.39a2.43,2.43,0,0,0,2.14-.13v-.8l2.16-.94V82.15a7.56,7.56,0,0,1-2-1.13c-.36-.45-.42-1-1.26-1.24a7.77,7.77,0,0,1,3.29-1.33c0-.3.11-.62-.55-.84H63.11l-2.4-1.51c.71-.17,1.42-.38,2.12-.62l.11.16a2.55,2.55,0,0,0,2.35-.48c1.61,0,3.23-.07,4.58,0l1,.58h5.55l1.16-.6H79.8l1.16.57h2.18l1.38-.63h5.24c.66-.16.74-.59,1.42-.44l2,1.1h7q0,4,0,8.1c.09,10.1-7.62,16.43-16.08,16.15-11.37-.38-22.75-.09-34.13-.09s-22.75,0-34.13,0C6.12,99.87,0,93.8,0,84.11c0-3.85,0-7.71,0-11.57l.49-.23L0,72.23V54.68l.88-.44c1.21-.08,2.52.21,3.6-.17l-2.6-1.72L0,52.4Q0,34.5,0,16.61a.39.39,0,0,0,.14-.24L0,16.29v-.66C0,7.29,5,1.38,12.77.24l.5,0,1.06.59H20c.39.42,1.28.5,1.23,1-.84.55-2.25-.18-3,.44l-.27,1.46c-.21.22-1.26.24-.43.76.91,0,2,0,3.07,0s2.23.31,3.08-.3V1.76c.45-1.3,1.94-1.4,3-1.74h9.6a8,8,0,0,1,2.46.74,1,1,0,0,1,.14.13h0c0-.06,0-.19.21-.33A.58.58,0,0,0,39.23,0h3.41l1.47,1.45L45.23.86,47.74.71C48.05.44,48.58.28,48.91,0ZM28.66,89.21c-.72.56-1,1,.17,1.2C29.43,90.05,29.39,89.71,28.66,89.21ZM27.2,58.74c.07.15.24.39.39.39a1.94,1.94,0,0,0,1.73-.46c-.78-.06-1.27-.11-1.77-.12C27.43,58.55,27.17,58.7,27.2,58.74ZM25.11,5.6a2.25,2.25,0,0,0,2-.26c-.86-.11-1-.75-2-.76C24.61,4.94,24.57,5.28,25.11,5.6ZM23,32.75l-.51.69a3.43,3.43,0,0,0,2.88,1.14l1.79-1C25.39,33.51,24.62,32.62,23,32.75Zm.85-2.39c-.5.13-1.73-.47-2.24.19l1.46,1c1-.12,1.9.2,3-.4ZM22.91,14.8a4.58,4.58,0,0,0,.75-.19c-.12-.07-.27-.2-.37-.19a4.73,4.73,0,0,0-.74.19C22.67,14.68,22.82,14.82,22.91,14.8ZM17.18,6.73a7.44,7.44,0,0,1,2.65.81H22l-.57-.32,2.34-.55-.37-.8c-.15,0-.28-.16-.43-.16H17.54C16.91,6,16.82,6.34,17.18,6.73ZM13.64,10.3c.64.27,1,.74,1.77.82.77-.19.35-.53.48-.8l-1.57-.87C13.35,9.69,13.76,10,13.64,10.3ZM5,16.34l2.63,1.73c2.07-.48,2.08-.5.67-1.53l1.34-1c1.15.2.36.79,1,1.05l1.77.34.32.86,1,.51c2,.46,3,.27,3.73-.32l1.16.58c.55-.6,1.85-.49,2.75-.88,0-.24-.08-.52-.12-.77l-1.93-.37c-.14-.37-.24-.65-.32-.85-.72-.29-1.63-.06-2-.51-.08-.27.24-.61-.42-.82a13.42,13.42,0,0,0-3.69,0l-.71,1.08c-1.2-.18-.35-.95-1.4-1.19H7.61a1.35,1.35,0,0,0-.41.18l-.39.83ZM18.17,34.68l-.49-.7c-1.63-.14-2.44.69-3.8.8h-.1c-.12-.09-.37,0,0,0a.17.17,0,0,1,0,.19l1.52.84A3.52,3.52,0,0,0,18.17,34.68Zm-1.9,9.82-.39.22a5.72,5.72,0,0,0,.74.19c.09,0,.24-.13.37-.19Zm-6.22,3.57a7.64,7.64,0,0,1-1.57-.53c-1.14,1,.67,1.25,1.28,1.78,1.3,0,2.6,0,3.89,0a4.6,4.6,0,0,0,.95-.2c.26-.39.33-.75-.43-1L13,48.67l-1-.58A12.6,12.6,0,0,1,10.05,48.07Zm2.25-2.85c-.54.13-1.44-.62-1.84.21A1.53,1.53,0,0,0,12.3,45.22Zm1.46-22.07v.74c.81.37,2.12.21,2.68.91L18,23.73a10,10,0,0,1-1.91-.42,4.07,4.07,0,0,0-1.85-.43C13.54,22.87,14.42,22.83,13.76,23.15Zm7.58,4.54v-1c-1.94-.57-2.29.88-3.93.43l-.92-.58c-.58.05-1.18-.12-1.37.06l1.76,1.19C18.08,27.67,19.71,28,21.34,27.69ZM8.09,21.37a2,2,0,0,0-2.22,0A2,2,0,0,0,8.09,21.37ZM6.11,43c.54-.12,1.44.62,1.84-.2A1.51,1.51,0,0,0,6.11,43ZM4.23,24.8H2.46c.14.53-.16.86.49,1.09a2.14,2.14,0,0,0,1.81-.22C4.68,25.39,5,25.06,4.23,24.8ZM1.62,17c.08.14.24.38.4.39a2,2,0,0,0,1.73-.47C3,16.84,2.47,16.78,2,16.77,1.85,16.77,1.6,16.92,1.62,17ZM1.34,33.62s.1.43,1.42.34c.92-.27,1.77-.59,2-1.23.07-.53-.58-.61-1.85-.61ZM4.87,50.9c-1-.35-1.3-1.08-3.14-.92L.32,51A9.86,9.86,0,0,0,4.87,50.9Zm-4.06,7,1.78-1.82C3.13,56,4,56,3.14,55.55c-.16-.09-.65.21-.6.51l-1.93.08C.25,56.8,0,57.34.81,57.91ZM5.66,77.38A1.82,1.82,0,0,0,5.31,77l-.39.22.39.39C5.44,77.51,5.68,77.43,5.66,77.38Zm1.27-3.75C6,73,4.82,73.37,3.77,73.29c-.34-.43.34-1-.78-1.19-.46.78-.47.82.66,1.18-.14.37.28.6.79.6A4.56,4.56,0,0,0,6.93,73.63ZM7.8,59.89a1.57,1.57,0,0,1,1.77-.71l1.37.49c.72-.29.44-.59.4-.87l-1.65-.91c-.76.2-1.73-.2-2.5.22C7,58.69,6.53,59.28,7.8,59.89Zm.26-.12c.15.3.12.81,1,.33C9.23,60,8.63,59.72,8.06,59.77ZM7.35,72.55a4.73,4.73,0,0,0,.74-.19l-.39-.22L7,72.36C7.1,72.43,7.25,72.56,7.35,72.55Zm3.85,1.84L10,73.31c-1.81-.09-2,.33-1.85,1a10.08,10.08,0,0,0,1.35.21C10.16,74.53,10.92,74.61,11.2,74.39ZM12.34,70c-.08-.14-.24-.38-.4-.38a2,2,0,0,0-1.73.46c.78.06,1.28.11,1.77.12C12.11,70.2,12.36,70.05,12.34,70Zm0-16.18a9.41,9.41,0,0,1-1.84-.43A3.06,3.06,0,0,0,8.64,53c-.15,0-.26.14-.46.25v1.28l1.55.92h1.18C11.38,54.92,11.87,54.37,12.35,53.82Zm1.29-1.73a3.9,3.9,0,0,0,3.37,0A3.84,3.84,0,0,0,13.64,52.09Zm.38,5.1a4.46,4.46,0,0,0,.74-.19c-.12-.07-.27-.2-.36-.19a4.85,4.85,0,0,0-.75.19C13.78,57.07,13.93,57.21,14,57.19Zm3,17.66a2.07,2.07,0,0,0-2.29,0c.08.27-.22.59.4.81a5.79,5.79,0,0,0,.71-.21C16.28,75.25,16.66,75.05,17.05,74.85Zm.49-17.54q-1.18.61,0,1.23Q18.74,57.93,17.54,57.31ZM20.32,38a2,2,0,0,0-2.24,0c.13.26-.24.6.48.81a2,2,0,0,0,1.76-.24Zm2.23,6.76-.72-.22-.39.22a5.72,5.72,0,0,0,.74.19C22.27,44.92,22.42,44.78,22.55,44.72Zm2.78-1.54a16.26,16.26,0,0,0-3.69.18c0,.65.9.33,1.4.44s.82.7,1.72.6c.32,0,.62-.13.93-.19C26.05,43.81,26,43.47,25.33,43.18Zm3.34-6.74H26.52l-1.21-.63H20.9c-.75,0,.13-.08-.47.24v.78l2,.39.38.86,3.6.88,2.84-1.79C29.23,37,29.26,36.65,28.67,36.44Zm41.68,6.72c-.54.09-1.45.07-.6.55C69.92,43.81,70.46,43.48,70.35,43.16Zm4.29,13.42c-.16-.58-1-.76-1.5-1.11-.64.28-.7.63-.16,1.28Zm1.27,6.87h0c-.15-.3-.13-.81-1-.33-.15.08.32.33.84.33.33.43-.34,1,.78,1.18C77,63.85,77.05,63.81,75.91,63.45ZM92.63,4.17c0,.07.27.21.35.2.26,0,.69-.14.7-.22,0-.28.27-.61-.52-.86C92.39,3.57,92.64,3.89,92.63,4.17ZM90.38,61.61c-.71.11-1.71-.3-2.13.36C89.72,62.24,89.72,62.24,90.38,61.61ZM88.71,45c.13-.07.37-.15.35-.2a1.63,1.63,0,0,0-.35-.41c-.12.07-.36.15-.34.2A1.58,1.58,0,0,0,88.71,45ZM91,61.08c-.17-.1-.7.23-.6.55C90.93,61.54,91.85,61.56,91,61.08Zm1.46-21.37-.4-.22a1.9,1.9,0,0,0-.35.42c0,.05.23.13.35.2ZM87.9,35.82a2,2,0,0,0-1.06,0c-1.39.56-3.36.64-4.24,1.6,0,.3-.08.61.84.92a7.15,7.15,0,0,0,1.17-.9c.5-.55,1.69-.24,2.31-.63a.88.88,0,0,1,1.28,0c-.29.58.3,1.28-.33,1.95a5.82,5.82,0,0,0-3.05,1.07c.08.28-.24.62.78,1L87,39.55l3.1-.1.73-1.18h3.44l2.68,1.41c.08-1,.43-1.71-.18-2.59L93.15,37C91.68,36.19,89.52,36.38,87.9,35.82ZM83.65,6l1.47.81,2.18-.73A5.4,5.4,0,0,0,83.65,6ZM77.77,24.13A3.83,3.83,0,0,0,75,23.71c.61.53.55,1.25,1.53,1.64a7.66,7.66,0,0,1,2.18.09c1.17.62,3.11.6,3.94,1.48.13.14.58.19.88.29h2.5l6.6,1.87a10.23,10.23,0,0,1,3.68-.71l1.87-.82c-.87-.7-2.25,0-3.1-.5l-.79-.44-1.17.59h-3.3l-1.26-.63H86.44l-2.17-1.21h2.22l1.57-.87A11.51,11.51,0,0,0,82,23.6c-.54.23-.95.41-1.26.53ZM73.7,2.34V3a3.8,3.8,0,0,0,3.34,0c-.08-.28.24-.62-.4-.82C75.64,2.06,74.56,1.75,73.7,2.34Zm-.06,2.48c.8.16,1,.74,1.93.79.54-.36.55-.69,0-1A2.23,2.23,0,0,0,73.64,4.82Zm-6.43.07a5,5,0,0,0,3.06,0v-1H68.6C68.38,4.27,67.26,4.34,67.21,4.89ZM63.69,6c.13.07.28.21.37.19A4.85,4.85,0,0,0,64.81,6l-.4-.22Zm-26,7.11c1.52-.15,2.14-.53,2.51-1.08a13,13,0,0,0-3.64-.17c-.15,0-.33.23-.5.36Zm5,10.08-.3-.95c-.55.24-.87.42-1.25.55-.56.2-1.43,0-1.84.42A3.91,3.91,0,0,0,42.62,23.2ZM61.47,1.1a4.58,4.58,0,0,0,.75.19c.09,0,.24-.12.36-.19L61.86.88ZM59.33,3.71a2.68,2.68,0,0,0,2.19-.17C60.54,3.16,59.84,3,59.33,3.71ZM58.07,18.29l1.78.88,1.69-.9c-.09-.26-.19-.53-.29-.83ZM52.73,1.62l.4.4c.12-.07.37-.15.35-.2a1.9,1.9,0,0,0-.35-.42ZM51.17,16.76c-.45-.16-.86-.34-1.37-.55H43.72c.3,1.07-1.91.14-2.16.92l1.95,1.08c.3.32,0,.8.83,1h2.48l1.72,1.19h4.67c.45-.73,2-.36,2.68-.88a.46.46,0,0,1,.66-.45c-1.9-.71-3.21-.17-4.38-1.12,1.41.25,1.4-.39,2.12-.62s.08-1,1.28-1.2A2,2,0,0,0,57,15.82c0-.22-.11-.49-.18-.83H54.12c-.69.63-.77,1.53-2.41,1.77A2.42,2.42,0,0,1,51.17,16.76Z" fill="#2a2a2a"/>
</svg>
