<svg xmlns="http://www.w3.org/2000/svg" width="100" height="112.65" viewBox="0 0 100 112.65">
  <path d="M76.79,53.79c-.13,1.25-.24,2.4-.38,3.54a.52.52,0,0,1-.36.3c-.82,0-1.64,0-2.46,0-.11,0-.31-.22-.3-.33.09-1.07.2-2.14.33-3.22a.44.44,0,0,1,.27-.28C74.83,53.78,75.77,53.79,76.79,53.79ZM.06,44c0-3.81,0-7.63,0-11.44a8.66,8.66,0,0,1,4.43-7.69Q25,13,45.56,1.2a8.9,8.9,0,0,1,8.89,0c1.12.58,2.2,1.26,3.3,1.89,12.51,7.23,25,14.43,37.54,21.7a9,9,0,0,1,4.64,7.36c.11,1.24.06,2.5.06,3.75q0,21.9,0,43.79a9.05,9.05,0,0,1-4.74,8.23c-2.79,1.65-5.61,3.25-8.42,4.87C76.07,99,65.34,105.21,54.57,111.37a8.8,8.8,0,0,1-9.16,0Q25.07,99.67,4.77,87.9A9.29,9.29,0,0,1,.32,82C.18,81.52.11,81,0,80.46V45.85c0-.29.07-.58.07-.87v-.51l1.05.58,3-1.28c.1-.55,0-.84-.52-1H1.39c-.52.19-.59.48-.57.79S.34,43.88.06,44ZM29.73,91.88a6,6,0,0,0-.37-.51,4.11,4.11,0,0,0-.75.23c-.38.18-.72.4-1.08.61a2.53,2.53,0,0,0,2.2.08C29.73,92.07,29.78,92,29.73,91.88Zm2,1.65a1.66,1.66,0,0,0-.35-.42c-.12.07-.37.16-.34.21s.22.27.34.41C31.53,93.66,31.77,93.58,31.75,93.53ZM32,91l-.72-.21-.39.21a5.74,5.74,0,0,0,.74.2C31.68,91.17,31.84,91,32,91Zm24.46,9.83-.39-.21-.72.21c.13.07.28.21.37.2A5.74,5.74,0,0,0,56.42,100.79ZM63.1,95H59.24c-.63.45-1.91.67-1.7,1.42,2.91,1,3.26,1.07,3.94,1l1.62-.85Zm.61-.53c-.17-.1-.7.23-.6.55C63.65,94.89,64.56,94.91,63.71,94.43ZM96,39.11H93.46c-.26.44-1.45.54-1.47,1.39.78.2.84,1.06,3,1l1.33-1.28C96.29,40.12,96.79,39.61,96,39.11ZM88.75,36.3c.54.33,1.26.63,1.1,1.22,0,.09.84.25,1.16.34,1.75-.33,1.83-1.22,2.58-1.83l2.7-.12.14-.87-1.64-.9H92.54Zm-2.41,2.81c.29.73-.25,1.25.66,1.8.54-.33,1.15-.62,1.68-1-.07-.28.2-.6-.52-.83Zm-6.5,7.77c-.62,0-1.24,0-1.86,0-.36,0-.47.13-.51.48-.1,1.15-.23,2.3-.37,3.45,0,.12-.14.33-.22.33-1,0-1.93,0-2.95,0,0-.25,0-.43,0-.61.11-1.07.21-2.15.33-3.22,0-.32-.08-.45-.41-.44H72c-.3,0-.4.11-.42.4-.11,1.12-.25,2.24-.35,3.36,0,.38-.15.56-.57.53s-1.08,0-1.62,0c-.37,0-.53.09-.51.49a14.59,14.59,0,0,1,0,1.62c0,.39.14.52.51.51h1.85c-.15,1.29-.27,2.47-.43,3.65,0,.08-.24.2-.38.2-.62,0-1.24,0-1.85,0-.31,0-.46.08-.45.42,0,.58,0,1.17,0,1.76,0,.3.1.42.41.41.51,0,1,0,1.53,0s.47.1.42.49c-.15,1.24-.26,2.48-.4,3.73,0,.36,0,.54.46.52.61,0,1.21,0,1.81,0,.35,0,.46-.13.48-.45.12-1.28.26-2.55.38-3.83,0-.32.15-.46.49-.45.74,0,1.49,0,2.23,0,.42,0,.48.17.44.53-.15,1.26-.27,2.52-.43,3.78,0,.34.09.43.41.42.63,0,1.26,0,1.9,0,.32,0,.42-.1.45-.41.11-1.25.26-2.49.37-3.74,0-.43.19-.62.66-.58s1.08,0,1.62,0c.29,0,.44-.09.43-.4V58c0-.28-.12-.39-.39-.39H79.51c-.32,0-.4-.13-.36-.43.12-1,.24-2,.31-2.94,0-.42.2-.52.58-.5.54,0,1.08,0,1.62,0s.66-.11.62-.6a8.65,8.65,0,0,1,0-1.44c0-.48-.15-.62-.61-.59-.61,0-1.22,0-1.88,0,.14-1.35.26-2.61.4-3.86C80.23,47,80.15,46.87,79.84,46.88ZM69.21,55.64l.4-.4-.4-.21a1.66,1.66,0,0,0-.35.41C68.84,55.49,69.09,55.57,69.21,55.64Zm1.06-42.39H68.66c-.13.36.29.59.79.59a4.53,4.53,0,0,0,2.44-.22c.17-.38.25-.74-.5-.95Zm-1.58,0c-.15-.3-.13-.8-1-.33C67.52,13,68.12,13.3,68.69,13.24ZM55.33,12.1,58,13.82h2.9V12.36c-1.61-.23-2.75-1.17-4.65-.95a5.13,5.13,0,0,0-.89.29Zm-17.81,7a5.88,5.88,0,0,0,.75.19c.09,0,.24-.13.36-.19l-.72-.22ZM32,21.86a4.09,4.09,0,0,0,.37.51,5.89,5.89,0,0,0,.74-.23c.39-.19.72-.4,1.08-.61a2.49,2.49,0,0,0-2.2-.08C32,21.67,31.92,21.77,32,21.86ZM27.41,23c.78.06,1.27.11,1.77.12.12,0,.38-.15.36-.2s-.25-.38-.4-.38A1.94,1.94,0,0,0,27.41,23Zm.47,5.16c-.1,0-.25.12-.37.19l.72.22.39-.22A4.46,4.46,0,0,0,27.88,28.11ZM21.23,39.27a32,32,0,0,0-4.37,19.81,35.76,35.76,0,0,0,2,9,.12.12,0,0,0-.05.06,1.43,1.43,0,0,0,.15.22,31.32,31.32,0,0,0,2.52,5.18,30.5,30.5,0,0,0,6.81,8,33.41,33.41,0,0,0,28.54,7.37c9.56-1.82,16.71-7.24,21.73-15.52.2-.33.18-.49-.17-.68-1.74-1-3.48-2-5.22-3l-8.3-4.81c-.27-.16-.48-.25-.67.11a7.58,7.58,0,0,1-.6.88c-4.11,5.45-9.48,8.05-16.31,6.87a16.1,16.1,0,0,1-11.82-8.41c-.26-.48-.5-1-.71-1.43l.35-.08a1.16,1.16,0,0,0-.6-.57A16.06,16.06,0,0,1,34,51.86a16.57,16.57,0,0,1,19-12c.41.08.8.18,1.19.28v.54L55.49,42c1.4.25,1.76,0,2-.22a.33.33,0,0,0,.06-.28,17.1,17.1,0,0,1,6.54,6.07c.22.34.38.38.72.18,3.69-2.15,7.38-4.28,11.08-6.42l2.87-1.67c-.1-.17-.17-.31-.25-.43-.57-.9-1.18-1.76-1.81-2.61a1.49,1.49,0,0,0,.8-.29v-.94L76,34.1a11.36,11.36,0,0,1-1.29,0c-.37-.41-.75-.82-1.14-1.21a32,32,0,0,0-18.83-9.57,33,33,0,0,0-16.29,1.81A32.76,32.76,0,0,0,21.23,39.27ZM52,54.1c0-.06-.27-.21-.36-.19-.26,0-.69.13-.7.22,0,.27-.27.6.52.85C52.19,54.7,51.94,54.38,52,54.1ZM24.57,31.59l.72-.22c-.13-.07-.28-.2-.37-.19a4.85,4.85,0,0,0-.75.19Zm-.45-3.25c.79.16.95.74,1.92.79.54-.36.56-.7,0-1A2.23,2.23,0,0,0,24.12,28.34Zm-4,4.62c-.58.52-.48,1.18-1.55,1.48a1.47,1.47,0,0,0,.39.21c.32.05.66.07,1,.1,2.29-1,2.45-1.27,1.48-1.79Zm-3.77-12a2,2,0,0,0,2.23,0A2,2,0,0,0,16.39,20.93Zm.67,2.81c.73-.21,1.7.19,2.48-.24-.17-.5-1-.7-1.52-1H16.94C16.15,22.88,16.13,23.29,17.06,23.74Zm-2.8,15.35c1-.08,1.56.09,2-.27s.24-.71-.4-1c-.5,0-1.1-.12-1.57.3Zm-3.43,4.57c.12.07.27.2.37.19a4.46,4.46,0,0,0,.74-.19c-.12-.07-.27-.2-.36-.19A4.85,4.85,0,0,0,10.83,43.66Zm-10-4.3a4.85,4.85,0,0,0,.75.19c.09,0,.24-.12.36-.19l-.71-.22Z" fill="#2a2a2a"/>
</svg>
