<svg xmlns="http://www.w3.org/2000/svg" viewBox="0 0 60.44 59.87"><path d="M29.86.06A39,39,0,0,1,41.36,3.5a70.6,70.6,0,0,1,7,3.73A27.81,27.81,0,0,1,56.65,15a20.76,20.76,0,0,1,3.78,11.56A29.51,29.51,0,0,1,59,36a49,49,0,0,1-5.91,12.49,27.33,27.33,0,0,1-7.53,7.81,20.72,20.72,0,0,1-10.89,3.56A33.77,33.77,0,0,1,20.45,57,46.77,46.77,0,0,1,10,51.25a24.5,24.5,0,0,1-8.72-11,21.94,21.94,0,0,1-1.24-9.5,39.57,39.57,0,0,1,4.68-15,35,35,0,0,1,7-9.69A20.87,20.87,0,0,1,25.54,0C27,0,28.42,0,29.86.06ZM26.45,9.35,23.76,9.2a25.87,25.87,0,0,0-9.5,1A13.14,13.14,0,0,0,5,20a24.66,24.66,0,0,0-.33,8.86A43.4,43.4,0,0,0,7.24,39.31a33.1,33.1,0,0,0,6.44,11.22,14.7,14.7,0,0,0,4.88,3.62,12.78,12.78,0,0,0,7.65.75,24,24,0,0,0,9.21-4.17,67.57,67.57,0,0,0,7.82-6.4,75.11,75.11,0,0,0,8-8.83c1.31-1.72,2.56-3.48,3.82-5.24a22.58,22.58,0,0,0,2.64-4.6,6.08,6.08,0,0,0-1.81-7.1A22.83,22.83,0,0,0,49.27,15a102.38,102.38,0,0,0-12.1-3.71A60,60,0,0,0,26.45,9.35Z" fill="#fff"/><path d="M10.82,26V20.56h1.63l.88,1.73a16.92,16.92,0,0,1,.79,1.76h0A22.42,22.42,0,0,1,14,21.71V20.56h1.32V26H13.86L13,24.15a18.81,18.81,0,0,1-.84-1.82h0c0,.65.07,1.48.07,2.41V26Z" fill="#fff"/><path d="M17.74,24.75,17.45,26H16l1.53-5.39H19.4L20.91,26H19.36l-.31-1.2Zm1.13-1-.23-1c-.07-.31-.17-.79-.25-1.11h0c-.08.32-.16.81-.24,1.11l-.22,1Z" fill="#fff"/><path d="M21.63,24.57a3.23,3.23,0,0,0,1.34.3c.51,0,.76-.18.76-.46s-.25-.43-.85-.66c-1-.38-1.45-.91-1.45-1.59,0-.93.78-1.68,2.19-1.68a3.54,3.54,0,0,1,1.36.25l-.28,1.13a2.61,2.61,0,0,0-1.09-.23c-.46,0-.71.17-.71.41s.25.39,1,.67c1,.37,1.36.91,1.36,1.6,0,1-.78,1.71-2.31,1.71a4,4,0,0,1-1.53-.29Z" fill="#fff"/><path d="M27.44,20.56v2H29v-2h1.47V26H29V23.81h-1.6V26H26V20.56Z" fill="#fff"/><path d="M32.73,26l-1.65-5.39H32.7l.53,2.15c.15.59.29,1.19.4,1.86h0c.12-.65.25-1.27.39-1.85l.54-2.16h1.58L34.45,26Z" fill="#fff"/><path d="M38.19,20.56V26H36.72V20.56Z" fill="#fff"/><path d="M39.22,20.56h1.46v4.23h2V26H39.22Z" fill="#fff"/><path d="M43.36,20.56h1.47v4.23h2V26H43.36Z" fill="#fff"/><path d="M50.8,23.74H49V24.8h2V26h-3.5V20.56H50.9V21.7H49v.92H50.8Z" fill="#fff"/><path d="M10.85,31.07a3.23,3.23,0,0,0,1.34.3c.52,0,.76-.18.76-.46s-.25-.43-.85-.66c-.95-.38-1.45-.91-1.45-1.59,0-.93.78-1.68,2.19-1.68a3.6,3.6,0,0,1,1.37.25l-.28,1.13a2.71,2.71,0,0,0-1.1-.23c-.46,0-.7.17-.7.41s.25.39.95.67c1,.37,1.36.91,1.36,1.6,0,1-.78,1.71-2.32,1.71a3.92,3.92,0,0,1-1.52-.29Z" fill="#fff"/><path d="M20,29.68c0,1.82-1,2.85-2.59,2.85a2.5,2.5,0,0,1-2.5-2.76A2.58,2.58,0,0,1,17.53,27,2.48,2.48,0,0,1,20,29.68Zm-3.54.08c0,1.09.4,1.65,1,1.65s1-.67,1-1.68-.35-1.63-1-1.63S16.49,28.71,16.49,29.76Z" fill="#fff"/><path d="M20.81,27.06h3.36V28.2h-1.9v1.05h1.79v1.12H22.27v2.08H20.81Z" fill="#fff"/><path d="M26.05,28.25H24.73V27.06h4.14v1.19H27.52v4.2H26.05Z" fill="#fff"/><path d="M30.52,32.45l-1.2-5.39h1.57l.28,2c.09.62.18,1.31.26,1.89h0c.09-.62.21-1.25.33-1.9l.37-2H33.6l.34,2c.11.61.18,1.17.26,1.8h0c.07-.62.16-1.24.25-1.87l.29-2h1.48L35,32.45H33.38L33,30.55c-.08-.47-.16-1-.23-1.66h0c-.1.65-.18,1.18-.28,1.67l-.4,1.89Z" fill="#fff"/><path d="M37.9,31.25l-.29,1.2H36.12l1.53-5.39h1.91l1.51,5.39H39.52l-.31-1.2Zm1.13-1-.23-1c-.07-.31-.17-.79-.25-1.11h0c-.08.32-.16.81-.24,1.11l-.22,1Z" fill="#fff"/><path d="M41.76,27.13A12.19,12.19,0,0,1,43.45,27a3,3,0,0,1,1.85.42,1.34,1.34,0,0,1,.54,1.17,1.44,1.44,0,0,1-1,1.3v0a1.3,1.3,0,0,1,.71,1,15.13,15.13,0,0,0,.45,1.53H44.54a6.17,6.17,0,0,1-.37-1.25c-.13-.65-.33-.79-.75-.79h-.21v2H41.76Zm1.45,2.27h.33c.53,0,.83-.29.83-.69s-.24-.65-.72-.65a2,2,0,0,0-.44,0Z" fill="#fff"/><path d="M50,30.24H48.16V31.3h2v1.15h-3.5V27.06h3.39V28.2H48.16v.92H50Z" fill="#fff"/><path d="M10.85,37.57a3.23,3.23,0,0,0,1.34.3c.52,0,.76-.18.76-.46s-.25-.43-.85-.66c-.95-.38-1.45-.91-1.45-1.59,0-.93.78-1.68,2.19-1.68a3.6,3.6,0,0,1,1.37.25l-.28,1.13a2.71,2.71,0,0,0-1.1-.23c-.46,0-.7.17-.7.41s.25.39.95.67c1,.37,1.36.91,1.36,1.6,0,.95-.78,1.71-2.32,1.71a3.92,3.92,0,0,1-1.52-.29Z" fill="#fff"/><path d="M19.05,38.83a3.55,3.55,0,0,1-1.27.19,2.56,2.56,0,0,1-2.84-2.68,2.75,2.75,0,0,1,3-2.86,3,3,0,0,1,1.25.22l-.28,1.1a2.41,2.41,0,0,0-.89-.17,1.44,1.44,0,0,0-1.49,1.63A1.42,1.42,0,0,0,18,37.85a3.09,3.09,0,0,0,.87-.12Z" fill="#fff"/><path d="M21.28,33.56v2h1.59v-2h1.47V39H22.87V36.81H21.28V39H19.81V33.56Z" fill="#fff"/><path d="M30.21,36.18c0,1.82-1,2.85-2.59,2.85a2.5,2.5,0,0,1-2.5-2.76,2.58,2.58,0,0,1,2.59-2.79A2.48,2.48,0,0,1,30.21,36.18Zm-3.54.08c0,1.09.4,1.65,1,1.65s1-.67,1-1.68-.36-1.63-1-1.63S26.67,35.21,26.67,36.26Z" fill="#fff"/><path d="M35.82,36.18c0,1.82-1,2.85-2.59,2.85a2.5,2.5,0,0,1-2.5-2.76,2.58,2.58,0,0,1,2.59-2.79A2.48,2.48,0,0,1,35.82,36.18Zm-3.54.08c0,1.09.4,1.65,1,1.65s1-.67,1-1.68-.35-1.63-1-1.63S32.28,35.21,32.28,36.26Z" fill="#fff"/><path d="M36.6,33.56h1.47v4.23h2V39H36.6Z" fill="#fff"/></svg>