<svg xmlns="http://www.w3.org/2000/svg" viewBox="0 0 30 30"><path d="M30,2.58V27.42a.47.47,0,0,0-.05.1,3,3,0,0,1-3,2.48H3.09a3.15,3.15,0,0,1-.81-.1,3,3,0,0,1-2.28-3v-24A3,3,0,0,1,1,.76,3.47,3.47,0,0,1,2.58,0H27.42l.13.05a3.06,3.06,0,0,1,1.77,1.07A3.7,3.7,0,0,1,30,2.58Zm-4.52,22.9a1.48,1.48,0,0,0,0-.2c0-2.77,0-5.54,0-8.32a5.07,5.07,0,0,0-2.3-4.32,4.53,4.53,0,0,0-5.36-.12,12.72,12.72,0,0,0-1.32,1.13V12H12V25.48H16.5V17.86a5.68,5.68,0,0,1,0-.59,2.26,2.26,0,0,1,2.82-1.87A2.3,2.3,0,0,1,21,17.72v7.76ZM9,25.48V12H4.53V25.48ZM9.44,6.75a2.7,2.7,0,1,0-2.7,2.69A2.71,2.71,0,0,0,9.44,6.75Z"/></svg>