<svg xmlns="http://www.w3.org/2000/svg" viewBox="0 0 30 30"><path d="M30,14.19H24.26a20.78,20.78,0,0,0-.42-3.14,19.53,19.53,0,0,0-.92-3h5.35a.12.12,0,0,1,.12.07,15,15,0,0,1,1.39,4.17A16.86,16.86,0,0,1,30,14a.17.17,0,0,0,0,.07Zm0,1.55H24.26a20.39,20.39,0,0,1-.35,3,18.9,18.9,0,0,1-.83,2.94h5.33a.08.08,0,0,0,.09-.06c.17-.4.36-.81.52-1.22A14.28,14.28,0,0,0,30,16.2l0-.3ZM16.71,0l0,.11-.07.05.06,0,.66.46a15.46,15.46,0,0,1,2.84,2.7,18,18,0,0,1,1.95,3.06.1.1,0,0,0,.1.06H27.4l0-.08a14,14,0,0,0-3.72-3.77A15,15,0,0,0,19.92.73,15.43,15.43,0,0,0,17.16.06L16.77,0Zm5.86,14.11a18.29,18.29,0,0,0-.31-2.44,16.71,16.71,0,0,0-1.12-3.58A.1.1,0,0,0,21,8H15.57v6.13h7Zm-7,7.59h5.55a.09.09,0,0,0,.1-.06A16.85,16.85,0,0,0,22,19.46a17.47,17.47,0,0,0,.53-3.3c0-.13,0-.25,0-.38h-7V21.7ZM14,14.19V8.07H8.67a.09.09,0,0,0-.09.06,17.29,17.29,0,0,0-1.07,3.36,18,18,0,0,0-.29,1.93c0,.25,0,.51-.06.78ZM7.16,15.83a17.32,17.32,0,0,0,.26,2.38,16.35,16.35,0,0,0,1,3.42c0,.06.05.07.11.07H14V15.78H7.16ZM6.76,8h-5a.11.11,0,0,0-.1.07,16,16,0,0,0-1.61,6v.07H5.42A19.86,19.86,0,0,1,6.76,8ZM0,15.8a17.83,17.83,0,0,0,.23,1.93,15.23,15.23,0,0,0,1.27,3.9.1.1,0,0,0,.1.07h5a19.36,19.36,0,0,1-1.18-6H0Zm27.54,7.48h-5a.23.23,0,0,0-.24.14,17,17,0,0,1-2.47,3.74,16,16,0,0,1-2.73,2.47l-.43.3a.25.25,0,0,0,.2.07,14.89,14.89,0,0,0,2.3-.47,14.63,14.63,0,0,0,2.64-1,15.4,15.4,0,0,0,3.39-2.37,15.26,15.26,0,0,0,1.81-2c.19-.25.37-.52.55-.78Zm-25.07,0a14.18,14.18,0,0,0,3,3.46,15,15,0,0,0,4,2.34,14.53,14.53,0,0,0,3.31.86.38.38,0,0,0,.15,0,.11.11,0,0,0,0-.05,15.54,15.54,0,0,1-1.56-1.22,18.09,18.09,0,0,1-2.17-2.29,18.28,18.28,0,0,1-1.92-3.06.11.11,0,0,0-.12-.08H2.44A.11.11,0,0,0,2.47,23.29ZM12.59.09A14.34,14.34,0,0,0,10,.74a14.6,14.6,0,0,0-3.68,1.9A13.94,13.94,0,0,0,4.27,4.41a19.14,19.14,0,0,0-1.63,2l0,.06H7.4a.09.09,0,0,0,.1-.06,16.12,16.12,0,0,1,2.58-3.71A17.47,17.47,0,0,1,12.73.31L13,.13,12.9,0Zm7.89,23.2h-5v5.37A16.1,16.1,0,0,0,20.48,23.29ZM14,28.55V23.29H9.24A15.27,15.27,0,0,0,14,28.55ZM15.58,1.43v5h4.74A15.15,15.15,0,0,0,15.58,1.43ZM14,1.58a14.55,14.55,0,0,0-4.56,4.9H14Z"/></svg>