<svg xmlns="http://www.w3.org/2000/svg" width="80.63" height="100" viewBox="0 0 80.63 100">
  <g>
    <path d="M23.29,81.9a6.27,6.27,0,0,0-4.72,2.88,10.94,10.94,0,0,0-1.83,6.83,3.91,3.91,0,0,0,3.69,3.9h.18c.46-.38,1-.23,1.58-.27a1.51,1.51,0,0,1,.32.36l1.57,0h0c.66-.39.66-.4,3.25-.17l-.33.18h1.71c.17,0,.47-.14.51-.27.25-.79.43-1.59.66-2.46l-1.55-.07c.12-.32.21-.56.29-.8.43-1.3.93-2.59,1.25-3.91A4.88,4.88,0,0,0,26.09,82L25,81.75H23.73A2.28,2.28,0,0,1,23.29,81.9Zm2.21,3a2.06,2.06,0,0,1,1.19,2.3c-.34,1.76-.85,3.48-1.33,5.21a.71.71,0,0,1-.53.34,12.13,12.13,0,0,1-1.35,0v0c-.45,0-.91,0-1.36,0a1.92,1.92,0,0,1-2-2A7.47,7.47,0,0,1,21.4,86,3.52,3.52,0,0,1,25.5,84.93Z" fill="#231f20"/>
    <path d="M54.7,85.47c-.44,2.13-.93,4.26-1.39,6.39-.26,1.19-.49,2.4-.77,3.73.86,0,1.55,0,2.24,0s.78-.16.89-.73c.43-2.22.95-4.42,1.37-6.65.12-.64.4-.79,1-.78,1.7,0,3.4,0,5.1,0a7.78,7.78,0,0,0,.79-.06c-.07-.3-.11-.5-.17-.7-.41-1.58-.85-1.92-2.5-1.92-1.89,0-3.77,0-5.66,0A.76.76,0,0,0,54.7,85.47Z" fill="#231f20"/>
    <path d="M34.34,89.54l1-4.79c-.85,0-1.57,0-2.27,0s-.74.22-.83.71c-.18,1-.43,1.9-.59,2.86A30.38,30.38,0,0,0,31,92.52a2.68,2.68,0,0,0,2.89,3c1.7.07,3.4,0,5.11,0,.45,0,.64-.15.74-.62.21-1,.43-2.06.65-3.1a1.62,1.62,0,0,1-.42.29q-1.2-.61,0-1.23a1.21,1.21,0,0,1,.53.43c.32-1.5.65-3,1-4.5.15-.68.28-1.36.44-2.12-.85,0-1.54,0-2.22,0-.5,0-.69.15-.79.64-.39,1.94-.84,3.87-1.25,5.8s-.49,2-2.5,1.76c-.91-.11-1.27-.55-1.15-1.45C34.06,90.83,34.21,90.19,34.34,89.54Z" fill="#231f20"/>
    <path d="M26,30.45v-.2a14.76,14.76,0,0,1,4.36,0q.08.64.15,1.47l1.89.37c.27.14.21.32-.26.42a5.61,5.61,0,0,1-1.09,0H30l-1.19.6-2-1.12c.14.29.26.58.41.87.5,1,1,1.89,1.62,2.79a2,2,0,0,1,1.7.24,2.09,2.09,0,0,1-1.35.29,32.38,32.38,0,0,0,8.5,8.68h2.14a7.39,7.39,0,0,0,3.59.52l1.57,1.08c0,.17,0,.48-.15.54-.81.26-.8.76-1.11,1.16a33.69,33.69,0,0,0,15.39,2.46,8.75,8.75,0,0,0,1.38-1.43l2.94-.15.9-.49H67.8l.11,0a26.86,26.86,0,0,0,2.81-1.34H66.65c-.13-.07-.37-.13-.38-.2-.12-.6-.19-1.19-.31-2l2.15-.93,5.26,1.49c.41-.29.81-.59,1.19-.9l-.2.09c-1.09-.57.22-1.68-1.55-2.08,0-.5-.35-1,.23-1.45.14,0,.34-.08.39,0L76.52,43a18.13,18.13,0,0,0,3.37-4.81l-1,.57H77.41a27.93,27.93,0,0,1-15,5.05.44.44,0,0,1,.27.55l-2.16,1.74L58,44.14,56.35,45l-2.2-1.22-.68.38a4.25,4.25,0,0,1-1.86-.88c-.17-.44.43-.77.92-1.1a37.45,37.45,0,0,1-7.06-3.32,40.42,40.42,0,0,1-7.59-5.75l-1.28.71L35,32.9l1.43-.84a3.18,3.18,0,0,1,.61.16,30.3,30.3,0,0,1-3.09-3.85,6,6,0,0,1-2.31-1V26.12a2.34,2.34,0,0,1,.79-.31c-3.22-6.18-4-13.57-1.85-22.32C23.24,12.38,22.19,21.25,26,30.45ZM51.12,44.88H53.3l1.62.89-1.52.89H49.86c-.82-.37-.31-.81-.49-1.18C50.31,45.57,50.49,45,51.12,44.88Zm-1.73.6c-.72-.11-1.72.3-2.13-.36C48.73,44.85,48.73,44.85,49.39,45.48ZM40.85,41.9c1.3.43,3,.51,3.85,1.42-.12.4-1,.61-1.58,1a5.72,5.72,0,0,1-2.6-.93C40.64,42.87,40.15,42.34,40.85,41.9Zm-5.36-6.25h2.19c.67.27.73.62.42,1-.73.42-1.69.1-2.52.21s-1.33,1.08-2.64.44c0-.07-.13-.18-.08-.21C33.73,36.61,34.62,36.13,35.49,35.65Z" fill="#231f20"/>
    <path d="M13.6,44.28l-.43,0c-.6.2-.69.68-.44.79,1.16.53.93,1.48,2.12,2-.71.51-1.73.13-2.55.32L9.88,46.1c-.8-.05-1.51,0-1.77.43A8.3,8.3,0,0,1,7,46.7c-1.49,0-3,0-4.37,0C9.17,64.41,27.15,77.1,46.79,76.23A46.2,46.2,0,0,0,55.6,75a4.34,4.34,0,0,0-3-.65c.16-.62.21-.81.27-1,1.15-.45,2.46-.13,3.68-.21.94.32.51.83.73,1.44C66.68,71.86,74,65.9,79.23,56.44h0A36.57,36.57,0,0,1,66.61,64,13.93,13.93,0,0,1,70.09,64c.82.43.23,1,.43,1.44l-1.12.66V67.9c-.81.46-1.1.44-2.65-.23-1.28.26-1.7,1.29-3.6,1.14a1.77,1.77,0,0,1,0-2.44h2.34l1.17.6h1.07c.55-.2.6-.49.56-.8-.49-.72-2.46-.92-2.2-2a43,43,0,0,1-34-3.27C24,56.33,17.75,50.82,13.6,44.28ZM9.27,51.94c-.45.43-1,.26-1.56.3-.65-.51-2.3-.74-1.48-1.66.78-.38,1.72-.09,3-.24ZM61.06,65.75l.4.4-.4.22c-.12-.14-.29-.27-.34-.41S60.94,65.82,61.06,65.75Zm-.25,2.09a5.36,5.36,0,0,1-3.43.18C58.07,67.59,58.07,67.57,60.81,67.84Zm-4-1.36c.09,0,.24.13.36.2l-.71.21-.4-.21A5.89,5.89,0,0,1,56.81,66.48ZM30,67.57l1.51,1V71a1.78,1.78,0,0,1-1.57.23c-1-.58-2.36-1-3-2Z" fill="#231f20"/>
    <path d="M2,44.77c.13.41.27.81.41,1.22.48-.24.26-.54.33-.82Z" fill="#231f20"/>
    <path d="M60.63,22.16a20.5,20.5,0,0,1-2.49-1.22,6.16,6.16,0,0,0-1.25.21l2.27,1Z" fill="#231f20"/>
    <path d="M52.67,24.39c9,6.71,22.43,4.39,25.55-3a20,20,0,0,1-16.66,1.12c.11.19,0,.38,0,.56-1.22.72-1.92.11-2.74-.33h-7.7c-.14,0-.27-.11-.41-.17.43-1.13,2.82-.93,3.82-1.72a6.69,6.69,0,0,1,1.88-1,21.66,21.66,0,0,1-2.72-2.25,4.15,4.15,0,0,1,.16.7c-1.4.14-2.44.37-3.39-.17.76-.2,1.49-.38,2.21-.59a2,2,0,0,1,.82-.14,21.6,21.6,0,0,1-2.26-2.69h-.33a.89.89,0,0,1-.42-1.16A20.47,20.47,0,0,1,47.78,0C41.7,7,44,17.91,52.67,24.39Zm4-.41H60l1.53.94v1.26c-.61.33.28.26-.47.26H56.79L55,25.65C54.74,24.63,56.05,24.44,56.64,24Z" fill="#231f20"/>
    <path d="M80.48,36.74c0-.14.1-.27.15-.4l-.27.2.12.08Z" fill="#231f20"/>
    <path d="M63.28,88.48l1,.56a3.5,3.5,0,0,0-.14-.46c-.08-.19-.32-.45-.51-.46-.92,0-1.84,0-2.91,0,.42,1.51.83,2.87,1.18,4.24a3.39,3.39,0,0,1,0,1.31c-.09.61-.28,1.21-.46,1.95,1,0,1.8,0,2.64,0,.48,0,.74-.15.81-.65a7.86,7.86,0,0,1,1.91-3.83c1.86-2.37,3.66-4.8,5.48-7.2.15-.2.28-.42.5-.76-1.08,0-2,0-3,0a1.13,1.13,0,0,0-1.1.59c-1.21,1.8-2.45,3.58-3.68,5.36-.06.1-.14.2-.21.3v1.24c-.48.42-1.07.25-1.57.29l-1.57-.87v-1.3C62.19,88.36,62.79,88.52,63.28,88.48Z" fill="#231f20"/>
    <path d="M1.34,42.65c.06.2.1.41.16.62C1.72,43,1.59,42.82,1.34,42.65Z" fill="#231f20"/>
    <path d="M3,27.32a6.6,6.6,0,0,1-2.63.32,31.73,31.73,0,0,0-.33,6.93A41.38,41.38,0,0,0,1,41.19c.38-.2.84-.36,1-.62.91.22.54.71.87,1,1.2.38,2.51.1,3.75.21l2,1.1c1.16-.09,1.38-.83,3.29-1.09h.28A37.06,37.06,0,0,1,8,28.26H7.63l-1.56-.86c.35-.47,1.22-.26,1.79-.44l0,0c0-.57-.08-1.15-.1-1.73-.32,0-.53-.14-.43-.4,0-.06.21-.09.42-.13a50.46,50.46,0,0,1,.79-10,1.48,1.48,0,0,1-.33-.17l.38-.12c.19-1.06.4-2.13.65-3.22a29.41,29.41,0,0,0-8.79,16A14.75,14.75,0,0,1,3,27.32Zm-.9,7.59c-.69,0-1-.54-1.67-.8a4,4,0,0,1,3.42,0Z" fill="#231f20"/>
    <path d="M50,84.78a10.48,10.48,0,0,0-2.85-.13,4.88,4.88,0,0,0-4.48,3.28,19.62,19.62,0,0,0-1,4.21,2.79,2.79,0,0,0,2.61,3.36c2,.23,4.08.15,6.12.18a.6.6,0,0,0,.43-.34c.2-.73.36-1.48.56-2.35-1.62,0-3.08,0-4.54,0a5.11,5.11,0,0,1-1.55-.28.91.91,0,0,1-.52-1.12c.08-.52.53-.33.84-.33q2.79,0,5.58,0c.49,0,.74-.14.81-.63a26.3,26.3,0,0,0,.38-2.89A2.7,2.7,0,0,0,50,84.78Zm-4.61,4.1a2.36,2.36,0,0,1,3.54-1.34c.29.26.34.79.57,1.34Z" fill="#231f20"/>
    <path d="M8.36,97.7c-.22.69-.35,1.42-.55,2.29.85,0,1.56,0,2.27,0a3.12,3.12,0,0,0,3.27-2.12,9.17,9.17,0,0,0,.49-1.42c.44-1.92.86-3.85,1.28-5.78.18-.83.36-1.66.55-2.57-1,0-1.85,0-2.7,0-.19,0-.47.31-.53.52-.31,1.19-.56,2.4-.83,3.61s-.48,2.37-.8,3.54S10.08,97.15,9,97.26A.81.81,0,0,0,8.36,97.7Z" fill="#231f20"/>
    <path d="M13.78,84.73a.76.76,0,0,0-.54.43c-.2.68-.32,1.37-.49,2.18,1,0,1.9,0,2.82,0a.46.46,0,0,0,.33-.26c.19-.75.35-1.5.54-2.36C15.45,84.71,14.61,84.69,13.78,84.73Z" fill="#231f20"/>
  </g>
</svg>
