<svg xmlns="http://www.w3.org/2000/svg" width="112.25" height="100" viewBox="0 0 112.25 100">
  <path d="M31.83.18a9.67,9.67,0,0,0-7.58,5.28A20.9,20.9,0,0,0,22,13.75a54,54,0,0,0,1.37,16.57c.14.64-.05.9-.64,1.09a65.93,65.93,0,0,0-10,4.07,34.41,34.41,0,0,0-8,5.51C2.4,43.13.57,45.56.13,48.77a2.6,2.6,0,0,1-.13.36v1.65a26.26,26.26,0,0,0,1.07,3.43C2.56,57.43,5.14,59.69,8,61.67a53.62,53.62,0,0,0,14.44,6.8c1.16.38,1.17.39.92,1.54a64.92,64.92,0,0,0-1.27,8.62.74.74,0,0,1,.27-.25,9.69,9.69,0,0,1,2.46-.13l1.61.89c.36.62-.4.93-1.05,1.25l1.05.66-1.61.88H21.94c0,.63,0,1.25,0,1.87a5.07,5.07,0,0,0,1.66-.59c.81.57.86,1.45,2.49,1.72.3-.08.49-.41,1-.51,0-.67,0-1.33,0-1.86A45.23,45.23,0,0,1,28,73.18c-.37-.24-.23-.34.07-.39.11-.6.23-1.2.35-1.79s.34-.7.92-.6l3,.53.4,0,.08.05c3.14.54,6.29,1.08,9.43,1.64a2.27,2.27,0,0,1,1.23.73l1,1.2H47a30.67,30.67,0,0,0,4,1.22,3.4,3.4,0,0,1,1.06,0c-.54-.63-1.09-1.25-1.63-1.87h-.07c-.49,0-1-.06-1.77-.12A1.7,1.7,0,0,1,50,73.34H62.38c-.55.69-1,1.33-1.53,1.93-1.12,1.29-2.26,2.57-3.39,3.85l.12.08-.37.21-.48.53a1,1,0,0,1-.27.25c0,.39.3.81-.43,1.1-.76-.19-1.16-.81-2.28-.56-1.18.4-.19,1.12-.78,1.64a5,5,0,0,1-1.77.22c.3.36.61.74.92,1.1s.2.69-.13,1a64.76,64.76,0,0,1-6.89,5.46c.6.87,1.73,1.42,1.39,2.26-1.07-.29-2.15-.57-3.2-.87a.17.17,0,0,1-.1-.15,25.64,25.64,0,0,1-5.64,2.7c0,.23-.11.48-.19.83-.58-.19-.79-.37-.86-.54l-.19,0a14.73,14.73,0,0,1-3.86.35,3.7,3.7,0,0,1-1.94-.67c-.32.27-.8.44-1.12.7l-2.54.08-1.36-1c.66-.45,1.66-.13,2.51-.23,1.14-.18.28-1,.85-1.12l.29.1c-.08-.13-.16-.26-.23-.4a12.91,12.91,0,0,1-1.13-2.9l-2.42.63h0c.1.31-.43.64-.6.55-.86-.48.06-.47.6-.56-.12-.17-.26-.47-.36-.47a9,9,0,0,1-2.52-.32,16.48,16.48,0,0,0,2.94,7,9.19,9.19,0,0,0,6.23,3.71c.19,0,.38.1.58.15h2.4c1.27-.28,2.57-.49,3.81-.86a38.16,38.16,0,0,0,12.26-6.73c.63-.49,1.24-1,1.85-1.51L52,90.54c-.14-.51,1.08-.76,1.72-1.23h.69l1.23-1.07c.34-.3.58-.37.87-.23a.55.55,0,0,1,.2-.35c.78-.4,1.75-.08,3.44-.34l2.08-1.14-1.69-1.45c-.45-.39-.64-.68-.13-1.27q2.19-2.56,4.35-5.14l-1.46.55H59.8c.7-1.07,2-.38,2.94-.67.67-.44.09-1,1.08-1.14l1.32.79c1.11-1.34,2.21-2.67,3.31-4a3.2,3.2,0,0,1,2.2-1.29l1.3-.22c0-.18.06-.36.09-.5-.43-.4-1-.31-1.8-.34l-1.78,1.21a4.4,4.4,0,0,1-3-.87V70.61c.3-.59,1.72-.11,2.17-.71v-.52c.93-.73,3,.09,3.82-1l2.29,1.27h2.12c1.09.42.87,1.19,1.9,1.71l5.21-.95c.67-.12.94,0,1.08.67a56.07,56.07,0,0,1,1.35,11.28A23.13,23.13,0,0,1,84,91.25c-.08.2-.18.37-.27.55l.06,0a1.63,1.63,0,0,1,.35.41s-.22.13-.35.2l-.23-.23c-1.19,2.08-3.05,2.9-5.66,2.52a23.78,23.78,0,0,1-8.94-3.59c-.29-.17-.56-.36-.84-.54H65.42c-.24,1-1.68.46-2.73.64l-1.33.62-1.58-1a51,51,0,0,0,8.83,6c3.36,1.76,6.84,3.13,10.73,3.07A9.48,9.48,0,0,0,88,94.63a15.88,15.88,0,0,0,.86-1.82l-3.48-2c0-.3-.19-.71.45-.8.89-.13,1.81-.15,2.21-.74a3.82,3.82,0,0,0,1.74.64c.18-.77.32-1.56.43-2.35a4.36,4.36,0,0,1-3.67.26c.79-.57,1.85-.34,3.29-.39,0-.24.18-.38.45-.51.07-.66.14-1.31.18-2,.05-.81.06-1.62.06-2.43h-.2c-.65-.38-.72-.72-.15-1.09a2.79,2.79,0,0,1,.34-.18c0-.34,0-.67,0-1-.62-.17-1.25-.33-1.82-.53a4.42,4.42,0,0,1-1-.6c.2-.11.33-.24.46-.24.74,0,1.49,0,2.25,0A71,71,0,0,0,89,69.74c-.15-.69,0-1,.71-1.19A60.58,60.58,0,0,0,100.2,64.2c-.71-.21-1.46-.39-2.22-.56-.75.23.14.84-.83,1l-3.92-2.31v-.61c-1.58.63-3.17,1.21-4.75,1.83h.66l1.41.49.85-.47c1,.14.66.54.61.89-.73.43-2.17.19-2.67.87H86l-1.17-.6H82.58l-.23-.15c.1.38.05.68-.44.78l-8.45,1.71-.08-.2,6.05-10.55c.32.78.63,1.45.87,2.15.55,1.6,1.08,3.21,1.62,4.81l.78-.4L84,63c.2.33.43.68.65,1,.72.21.69-.33,1.16-.42h1.8a1.1,1.1,0,0,1-.31-.5l-.3-.82H86.6V61.3q-1.26-3.48-2.55-6.94c-.53,0-1.08,0-1.58,0l-.8.44c-2.06-.38-1.62-1.9-3.55-2.34l-2,1.12-1.22.07c-.74,1.46-1.51,2.89-2.3,4.32,1.35.67.1,1.5.7,2.17-.91.2-1.57.31-2.16.5l-.11,0c-.19.33-.38.66-.58,1,.86.64.86,1.23,0,1.84l-.77-.46Q68.39,65,67.1,67a1.93,1.93,0,0,1-1.67,1c-3.25.1-6.5.29-9.76.29-3,0-6-.19-8.93-.29a1.58,1.58,0,0,1-1.36-.78l-.13-.2-.4.22a.67.67,0,0,1-.54-.92l.35-.2c-1-1.49-2-3-2.89-4.55a2,2,0,0,1-.4.1l-1-.55c-.49,0-1.2,0-1.9,0-.9,0-.58.69-1.33.64-.88-.24-.47-.75-.86-1l-1.13-.28c1.28,2.2,2.55,4.4,3.85,6.62-.58-.07-1.12-.13-1.64-.22l.23.14a5.72,5.72,0,0,1-.74.19c-.09,0-.24-.13-.37-.19l.58-.18-.17,0c-2.13-.42-4.26-.87-6.4-1.29-.43-.09-.63-.27-.47-.73.49-1.44,1-2.88,1.48-4.33a.61.61,0,0,1-.18,0c-1.13-.92-3.22-1.13-4.56-1.8-.56,1.51-1.11,3-1.66,4.54-.21.59-.44.76-1,.57-5-1.7-9.95-3.68-14.19-7a21.46,21.46,0,0,1-3.44-3.43c-1.76-2.19-1.69-4.28,0-6.55a21.82,21.82,0,0,1,7-5.75A55.27,55.27,0,0,1,24,36.38c.56-.19.83-.09,1.05.52,1,2.72,2,5.43,3,8.15l.67.37v.89h-.2l.69,1.85a11,11,0,0,1,2,.3,11.52,11.52,0,0,1-1.84.27l.24.65.25.63c-.07.21-.14.39-.21.58l-2.76,7.52c.48-.38,1.45-.57.57-1.11a13.67,13.67,0,0,1,4.06-.21,2.22,2.22,0,0,0,1,.48c.07-.18.13-.37.2-.56a1.38,1.38,0,0,1,.14-.25c.17.31.35.61.53.91.47,0,1,0,1.44,0l2.06-1.14h1.79c-.34-.63-.68-1.26-1-1.9a10.51,10.51,0,0,1-2.06-.13c-.08-.56.92-.71,1.33-1.07l.13,0c-.27-.53-.55-1-.81-1.57a3,3,0,0,1,0-2.94,136.5,136.5,0,0,1,9-15.57,2,2,0,0,1,1.78-1c3.08-.09,6.16-.26,9.21-.39l2.59.11c0-.32-.06-.67,0-.93-.51-.85-2.52-1.06-2.28-2.05-1.28-.46-1-1.48-2.23-1.94a.53.53,0,0,0,0-.28H50c.54-.69.94-1.27,1.4-1.81s1.15-1.32,1.73-2v-.2l.26-.09c.71-.83,1.43-1.65,2.15-2.47.3-.35.59-.64,1-.14.19.23.38.45.58.67a.29.29,0,0,1,.14.05c.58.35,1.36.59,1.55,1.18.14.43,1,.79,1.42,1.08,1.58.45,1.85-.73,3.4-.51l1.24.5h1c-.87-1.08-1.73-2.17-2.61-3.24s-2-2.29-3-3.43c-.11-.13-.19-.28-.31-.45a56.52,56.52,0,0,1,4.74-4l-.88-.41-1.15.58H59.33c-.95-.25-.41-1-1.31-1.35-.3.27-.61.53-.91.81-.11.1-.23.2-.33.31-.48.49-.83.43-1.36-.05A72.54,72.54,0,0,0,49.79,7H48.14L46,5.8l-2.25-.07a9.63,9.63,0,0,1-2.18,1.15c-.4.12-.86.18-1.3.29a47.67,47.67,0,0,1,11,7.61c1.12,1,1.1,1,.12,2.22-2.65,3.23-5.29,6.48-8,9.7a2,2,0,0,1-1,.6c-4.37.78-8.74,1.51-13.1,2.3-.65.11-.88-.12-1-.69-.41-2.88-.89-5.74-1.22-8.63a26.69,26.69,0,0,1,.75-10.06,13.87,13.87,0,0,1,.77-2,4.8,4.8,0,0,1,2.57-2.61l-.83-.44H28.11L26.64,3.5a2,2,0,0,1,.53-.19h7.66c1.17.69-1.68.84-.41,1.59l2.1.54-.36.2a16.73,16.73,0,0,1,1.91.58l-.46-.61c0-.06.11-.17.18-.27,1.17-.39,2.47-.1,4.09-.22L43.53,4a2.73,2.73,0,0,1,2.17.44l.38.07a39.18,39.18,0,0,0-6.23-3.07A16.4,16.4,0,0,0,31.83.18ZM2.57,55.52q-1.2-.62,0-1.23Q3.76,54.91,2.57,55.52ZM47.29,93c-.51,0-.93-.24-.8-.6,1.08.12,2.36-.31,3.28.35A4.52,4.52,0,0,1,47.29,93Zm6.35-5.53c-.5-.85-.5-.85.63-1.21h0c0-.3.07-.57.74-.49.18,0,.25.32.38.49H54.28C54.16,86.65,54.63,87.16,53.64,87.45Zm2.71-.87c-.87.47-.84,0-1-.34C55.92,86.19,56.52,86.48,56.35,86.58ZM87.08,72.73c.49,0,1,.06,1.77.12a2,2,0,0,1-1.73.47c-.15,0-.32-.25-.4-.39S87,72.73,87.08,72.73ZM73.73,62.28c.13.07.37.15.35.2a1.63,1.63,0,0,1-.35.41l-.39-.22Zm-36.14-.62c.72.12,1.72-.29,2.13.36C38.25,62.29,38.25,62.29,37.59,61.66Zm-6.06,6.23c.86.48-.06.47-.6.55C30.83,68.12,31.36,67.8,31.53,67.89Zm-.62.51c.1.32-.43.65-.6.55C29.45,68.47,30.37,68.49,30.91,68.4ZM60.58,17.55c.09,0,.24.12.37.19a4.85,4.85,0,0,1-.75.19c-.09,0-.24-.12-.37-.19A4.85,4.85,0,0,1,60.58,17.55Zm-8.53-6a2.08,2.08,0,0,1-1.79.24c-.67-.21-.36-.55-.44-.82a2,2,0,0,1,2.23,0Zm.72,7.17.39.22a4.73,4.73,0,0,1-.74.19c-.1,0-.25-.12-.37-.19Zm-3.31,12.7a6.37,6.37,0,0,1-.75-.2l.4-.21.72.21C49.7,31.32,49.55,31.46,49.46,31.45ZM49,23.76l2.16.72c-.33.46-.52.71-.55.75l-2.16-.72C48.81,24.06,49,23.8,49,23.76ZM30.47,34.59l8-1.52a1.84,1.84,0,0,1,.45.06c-2,3.5-4,6.93-6,10.55-.45-1.19-.86-2.21-1.22-3.25-.57-1.66-1.09-3.33-1.65-5C29.8,34.93,30,34.68,30.47,34.59Zm-.81,12c-.87.48-.84,0-1-.33C29.24,46.26,29.83,46.55,29.66,46.64ZM86.05,29.75H82.69a4.3,4.3,0,0,0-2.29,1.81H78.74c.61.57.61.57,2.64.62l1.18-.55c.56.09.83.39.59.63a11.57,11.57,0,0,1-1.54,1.14h-2.3l-1.16-.59a2.58,2.58,0,0,0-2,.46l-.29.17,5.92,1.15c.4.08.65.24.48.71-.92,2.65-1.83,5.31-2.75,8a1.52,1.52,0,0,1-.16.26l-5.46-9.42a4.74,4.74,0,0,1-.55,0l-.33.87-.72.4c-.09.08-.26.16-.26.24,0,.72,0,1.44,0,2.15-.4.41-.8.83-1.22,1.25.34.55.67,1.09,1,1.64,1.62,2.8,3,5.71,4.55,8.57a1.34,1.34,0,0,1,0,1.34v0H77c.14,0,.27.13.52.25l-.9.62c.13.32.58.38,1.2.35,1.12-.13,1.42-.86,2.67-1.1l1,.47h1.34c-.06-.18-.13-.36-.2-.54a2,2,0,0,1,0-1.51c.13-.33.25-.66.37-1l-.66,0c-.48,0-1-.13-1.71-.23l2-.86a1.51,1.51,0,0,1,.66.25l1.28-3.48a2.44,2.44,0,0,1-1.18-.11c-.59-.64-.17-1.34-.32-2.12,1.11-.28,1.74-.26,2.23.11l-1,.62.71.43c.68-1.84,1.37-3.67,2-5.52.39-1.06.4-1.11,1.48-.76a48.29,48.29,0,0,1,12.81,6,15.35,15.35,0,0,1,4.87,4.72c.12.21.22.42.32.63a1.59,1.59,0,0,0,1.24.3c1.06,0,.78-.5,1-.85a5.13,5.13,0,0,1,1.4-.9,2.74,2.74,0,0,1,1.63.83,11.44,11.44,0,0,0-1.65-3.39,3.53,3.53,0,0,0-1.27.22c.09.46,1.38.65.94,1.23-.6.67-2.11.47-2.94.93-.79-.65-.24-1.37-.39-2-.41-.45-1.28-.27-1.64-.37-.8-.3-.53-.62-.56-.91.7-.51,1.7-.2,2.67-.31l1.21-.57h.46a32.54,32.54,0,0,0-8.53-6.27c-1.48-.79-3-1.5-4.54-2.15l-.7.43c-.61-.27-.73-.58-.51-.92q-2.27-.9-4.59-1.65c-1-.31-1.06-.37-.91-1.18A3.54,3.54,0,0,1,86.05,29.75Zm-8.79,14.6a6.33,6.33,0,0,1-.75-.19l.4-.22.72.22C77.5,44.22,77.35,44.36,77.26,44.35Zm3.36-.62c-.79-.38-.82-.38-.33-1.89C81.18,42.64,81.13,43.18,80.62,43.73Zm21.32-3.23c-.87.47-.84,0-1-.33C101.52,40.11,102.11,40.41,101.94,40.5ZM100,39.82c.87-.47.84,0,1,.34C100.44,40.21,99.85,39.92,100,39.82Zm.89,21.23c1.36.07,1.8.8,2.72,1.14A24.35,24.35,0,0,0,110,56.36a11.81,11.81,0,0,0,1.53-2.73l-.52.07c-.1-.32.43-.65.6-.55l.08.05a9.75,9.75,0,0,0,.49-4.43c-.55,0-1.15-.07-1.7,0-1.39.62-.08,1.53-.76,2.24l-.95.21a2.19,2.19,0,0,0-1.6-1.12A7.56,7.56,0,0,1,105,54.39a26.82,26.82,0,0,1-7.46,5.42h.4C99.2,60,99.49,61,100.91,61.05ZM111,53.66c.1.32-.43.64-.6.55C109.52,53.73,110.44,53.74,111,53.66Zm-2.23-2.46c.1.32-.43.65-.6.55C107.3,51.27,108.21,51.29,108.75,51.2ZM22,79.66c0-.13,0-.26,0-.39A.74.74,0,0,1,22,79.66ZM76,.29A29.94,29.94,0,0,0,65.8,4.67a56.89,56.89,0,0,0-6.64,4.87l.15-.08,2,1.11c1.46.24,3,0,4.61.18l1.7-1.19a26.35,26.35,0,0,1,7.8-3.83,16,16,0,0,1,4.14-.51A4.27,4.27,0,0,1,83.4,7.73a17.12,17.12,0,0,1,1.79,7.08,44.51,44.51,0,0,1-.42,9.45H85l.89.49h4a52.31,52.31,0,0,0,.51-6.27A28.86,28.86,0,0,0,88.63,6.83C87.34,3.69,85.26,1.32,81.86.38A12.85,12.85,0,0,0,76,.29ZM67.62,3.61a2,2,0,0,1,2.22,0A2,2,0,0,1,67.62,3.61ZM65.54,54.54a10.93,10.93,0,0,1-.6,1.05c-.22-.16-.43-.33-.42-.52Zm-2.37,1.51-2.84-1.8a10.61,10.61,0,0,0-1.3.19,4.89,4.89,0,0,0-.79.42c-.67-.1-.84-.67-1.74-.57.08.61-.69.61-1.27.62-1.45-.11-.69-.85-1.37-1.2s-.82-.82-1.26-1.3l-1.08,1.28c-1-.55-.62-1.12-.27-1.79l3.67-.12.91-.5h5.78l1.14.63c.49-.54,1-1.07,1.21-1.3h2.58c0-.21,0-.42,0-.63A10.05,10.05,0,0,0,63,42h-.08c-.85-.42-2-.69-1.93-1.36A10.46,10.46,0,0,0,45.67,50a10.43,10.43,0,0,0,.17,1.88h.1l2.75,1.53V54.5c.3.41,1.3.51,1.14,1H48.24c-.49.13-.58.35-.62.56a10.68,10.68,0,0,0,8.5,4.38,10.56,10.56,0,0,0,7.95-3.72l-.39,0C63.12,56.52,63.15,56.21,63.17,56.05Zm.75-12.7c.09,0,.24.12.36.19a4.46,4.46,0,0,1-.74.19c-.1,0-.25-.12-.37-.19A4.85,4.85,0,0,1,63.92,43.35ZM46.86,48c-.1,0-.25-.12-.37-.19l.72-.22.39.22A4.73,4.73,0,0,1,46.86,48Zm3.93,7.83c-.87.47-.84,0-1-.33C50.36,55.47,51,55.76,50.79,55.86Zm3.48,1.2.4-.22.72.22c-.13.06-.28.2-.37.19A6.33,6.33,0,0,1,54.27,57.06Zm1.83,2.06-.71-.22c.12-.07.27-.2.36-.19a4.85,4.85,0,0,1,.75.19Z" fill="#2a2a2a"/>
</svg>
