<svg xmlns="http://www.w3.org/2000/svg" width="100" height="100" viewBox="0 0 100 100">
  <path d="M58.14,38.11l0-.16.06.16ZM47.57,69.44a2.83,2.83,0,0,0-2.83,1.37,4.45,4.45,0,0,0-.54,2.81,3,3,0,0,0,3.33,3,2.46,2.46,0,0,0,2.19-1.29,4.38,4.38,0,0,0,.55-2.3,4.52,4.52,0,0,0-.41-2A2.56,2.56,0,0,0,47.57,69.44ZM11.57,18q1.48-1.78,3.12-3.42a50,50,0,0,1,69-1.53H81.09a5.59,5.59,0,0,0-1,.17l-.78.43H73.76l-1.6.9c.32.2.66.41,1,.65.24.44-.35,1,.56,1.52h3c.93.21,1,.65,1.68.48l2-1.09h2.22l1.68,1.77c-.11.58.25,1.2-.32,1.8l-1.4.7c-1.07.11-2.09-.2-2.72.34v.62l2.76,1.52h2.59l1.7-1.2h2.38l1.29.57a2.24,2.24,0,0,1,.7-.44,49.78,49.78,0,0,1,5.82,11.48H93.8c-1.12.79-3.2.67-3.89,1.76,1.73.33,3.64-.13,5.3.26.23,1.16,1.93,1.64,3.22,2.35h0A50,50,0,0,1,26.11,93.93c.76-.33.4-1.11,1.5-1.3l-.54-.26H25.29a3.24,3.24,0,0,1,.07,1.13,50,50,0,0,1-20-66.07l1.09-.57c-.29-1,1.77-1.2,2.24-1.95,0-.41,0-.83-1.12-.79H7.21c.12-.2.26-.4.39-.6h5.47l1.63,1.28h3.45l1.46.63,6.85-1.92h5.06c.91-.38.33-1.23,1.63-1.5l-1.09-.66c-.2-.45.39-1-.38-1.42-.91.1-1.48.95-2.69.36-.81-.47.36-1.23-.81-1.67H27.09l-1.17.6H22.23L20.58,18ZM94.33,57l.4.22.72-.22c-.13-.07-.28-.2-.37-.19A4.85,4.85,0,0,0,94.33,57ZM91,69.28c.12.07.27.2.36.19a4.58,4.58,0,0,0,.75-.19c-.12-.07-.27-.2-.36-.19A4.58,4.58,0,0,0,91,69.28ZM75.37,11.5a2.1,2.1,0,0,0,2.28,0,5.09,5.09,0,0,0-2-.84ZM28.89,25l.39.39c.12-.06.37-.15.35-.2a2.13,2.13,0,0,0-.35-.41Zm.16,7a2.27,2.27,0,0,0,2-.24c-.8-.15-1-.74-1.93-.78Q28.27,31.5,29.05,32Zm.79,6c.12.07.27.2.36.19A4.85,4.85,0,0,0,31,38l-.4-.22Zm.55-2.15c.13-.07.37-.15.35-.2a1.66,1.66,0,0,0-.35-.42c-.12.07-.36.16-.34.21S30.27,35.66,30.39,35.8ZM13.73,56a2.31,2.31,0,0,0-2.29-2.27A2.28,2.28,0,0,0,9.2,56a2.27,2.27,0,1,0,4.53,0ZM25,90.56a2,2,0,0,0-1.78.24v.6a2,2,0,0,0,2.22,0C25.31,91.1,25.63,90.77,25,90.56ZM40.79,64.94l-.42-.16a8.17,8.17,0,0,0-2.91-.4,6.23,6.23,0,0,0-5.4,2.93,7.42,7.42,0,0,0-.54,7.18,5.5,5.5,0,0,0,3.92,3.33,7.56,7.56,0,0,0,3.63,0c.59-.13,1.15-.36,1.7-.53V75.74l-.23.08a6.74,6.74,0,0,1-3.5.75,4.25,4.25,0,0,1-3.49-1.89,6,6,0,0,1-.8-4.84,4.79,4.79,0,0,1,2.88-3.65,5.86,5.86,0,0,1,4.73.17l.43.18Zm9.05,28.59c-.54.08-1.45.07-.6.55C49.41,94.17,49.94,93.84,49.84,93.53Zm.62-.51c-.16-.1-.7.23-.59.55C50.41,93.48,51.32,93.5,50.46,93Zm1.43-20.11c0-.32,0-.64-.08-1a4.23,4.23,0,0,0-3.05-3.78,5.29,5.29,0,0,0-3.15.1A4.28,4.28,0,0,0,43,70.69a5.76,5.76,0,0,0-.3,3.75,4.27,4.27,0,0,0,3.48,3.46,4.46,4.46,0,0,0,4.67-1.67A5.26,5.26,0,0,0,51.89,72.91Zm7.25-4.58c-1.22-.53-2.28,0-3.33,1.63V68.34H54.22v9.4h1.6V72.62a4,4,0,0,1,.66-2.16,2,2,0,0,1,1.13-.8,2.35,2.35,0,0,1,1.53.21Zm2.67,5.15h6.56a16.77,16.77,0,0,0-.13-2.07,3.86,3.86,0,0,0-1.67-2.76,4.27,4.27,0,0,0-5.37.89A6.13,6.13,0,0,0,60.73,76a3.74,3.74,0,0,0,2.71,1.89,5.72,5.72,0,0,0,3.34-.38c.3-.14.59-.31.84-.44V75.63c-.22.14-.38.25-.55.34a4.35,4.35,0,0,1-3.24.59A2.72,2.72,0,0,1,61.81,73.48ZM71,57l-.39-.22-.72.22c.12.07.27.21.37.2A5.74,5.74,0,0,0,71,57Zm4-.21a6.43,6.43,0,0,0-.71.22c-.41.18-.79.38-1.18.57a2.05,2.05,0,0,0,2.29,0C75.36,57.33,75.65,57,75,56.78Zm10.41.83-.72-.22-.39.22a4.46,4.46,0,0,0,.74.19C85.16,57.81,85.32,57.68,85.44,57.61Zm.19-30a5.39,5.39,0,0,0,3.47-.16C86.41,27.17,86.41,27.19,85.63,27.61ZM67.69,29.27v3h8.17v5.46a2,2,0,0,0-.43.19,2.69,2.69,0,0,0,.43.19V57.79h3.42V32.28h8.23v-.17H91.6a2.63,2.63,0,0,0,2.25.58l1.8-1c-.82-.38-1.68-.74-2.45-1.15-.36-.18-.54-.27-.8-.12l-.81.44H89.36l-1.23-.62a2.08,2.08,0,0,1-.62.05v-1Zm10.68-5.83c.61-.36.57-.7-.16-1.2C77.49,22.79,77.17,23.18,78.37,23.44Zm-2.94-3.92a2,2,0,0,0,2.23,0c-.08-.28.23-.61-.44-.82a2.05,2.05,0,0,0-1.79.24ZM72.62,26a3,3,0,0,1-2,.57L69.2,26H65.42c0,.47-.12.71,0,.87.75.91,2.82.82,3.86,1.54h9l1.54-.94v-1.6c.35-.62,2.17-.87.74-1.69H78a29.31,29.31,0,0,0-2.55,1.59c-.25.2,0,.59-.6.79H73.79Zm-3.81-5.94c.64.75,1.86.2,2.89.44l.89.59c.85-.44.88-.85,0-1.26A15.1,15.1,0,0,0,68.81,20.05Zm0,4.38a2,2,0,0,0,2.22,0A2,2,0,0,0,68.76,24.43ZM64.31,12.15a5.88,5.88,0,0,0,.75.19c.09,0,.24-.13.36-.19l-.71-.22Zm0,2.44c1,.4,1.58,1.49,3.46.59-.46-.45.35-1-.58-1.45H64.31ZM61,12.15c.13.06.28.2.37.19a6.33,6.33,0,0,0,.75-.19c-.13-.07-.28-.21-.37-.2A6.37,6.37,0,0,0,61,12.15Zm.36,11.45c-.54.36-.55.7,0,1a2.24,2.24,0,0,0,2-.24C62.46,24.24,62.3,23.65,61.33,23.6Zm-8.07-2.1c2.13.44,4.36-.1,6.23.27l.93.51c.63-.29.73-.64.35-1C54.8,20.94,54.8,20.94,53.26,21.5ZM59.31,26l-.4.22.4.39c.12-.07.36-.15.34-.2A1.58,1.58,0,0,0,59.31,26Zm-2.54,1.64c.54-.12,1.44.62,1.84-.2A1.51,1.51,0,0,0,56.77,27.61ZM47.51,29.1c.44,1,.48,1.12,2.45,2V57.79H65.13V54.6H53.42V44.78H63.67V41.72H53.42V37h2c0,.36,0,.71,0,1.22h2.21c.12.17.19.46.37.48.67.09.78-.19.74-.48.67-.08,1.45.17,2.21-.32L59.31,37h-3.9v-.91l1.12-.66c-.19-.48.39-1-.43-1.44l-1.55.57-1.13-.14V32.29h11v-3H50.79l-.28-.15Zm15.13,6.7c-.12.07-.37.15-.35.2a1.86,1.86,0,0,0,.35.41c.13-.07.37-.15.35-.2A1.63,1.63,0,0,0,62.64,35.8ZM49.3,26.58q-1.2.62,0,1.23Q50.5,27.2,49.3,26.58Zm-6.75.6c1-.29.51-.8.64-1.21h2.73l1.16.61,2.55-1.41-1.25-1H44.85L43.18,25V26h0C42.05,26.33,42.05,26.33,42.55,27.18Zm-2.71,1.55a2,2,0,0,0,2.23,0A2,2,0,0,0,39.84,28.73Zm-1,11.2a1,1,0,0,1,.37.07c0,3.39,0,6.78,0,10.16,0,.5,0,1,.07,1.5s.06,1.06.1,1.67q-7.6-11.91-15.11-23.67a1.94,1.94,0,0,0,.93-.18c.38-.4.34-.74-.07-.93l-2,.7H19.58v8.39h-.25l-1.19.62H15.49l-1.74,1.36c-.31-.38-.46-.55-.59-.72s-.24-.36-.39-.59H8c-1.19.77-2.62,1.36-3.8,2.25,2.32.39,4.57-.11,6.73.34a5.62,5.62,0,0,1,0,1.24c0,.13-.42.23-.62.34l-1-.5H7c-.76.25-.48.58-.56.9L3.76,44.34l-1.42.16c-.49.48-.39.83.2,1.1.57.09,1.2-.12,1.6.3.09.43.19.91.28,1.37l1.51.78c1.45.29,1.84-.81,3-.57,1.51.32,2.07-.79,3.86-.57l1.84,1.33,2.89-1.66c-.58-.74,1.26-.93,1.15-1.75-1-.95-2.94-1.33-3.34-2.25l3.35-1.85V38.84l.87-.3V57.8h3.31V33.58c2.41,4,5.11,8,7.7,12.07s5.24,8.12,7.83,12.15h4.15V29.27H39.18V39C38.9,39.16,38.87,39.41,38.81,39.93Zm-1.19-13a4.85,4.85,0,0,0,.75.19c.09,0,.24-.12.36-.19L38,26.67Zm-4.23,5c2.28.37,2.38.37,3.12-.07v-.66l-1.7-.37Zm-.63-5.19c-1-.05-2.06-.34-2.6,0l1.11,1.08c1.15.1,1.59,0,1.91-.29C33.11,27.2,33.38,26.87,32.76,26.67ZM31,16.45c.12.06.27.2.36.19a5.88,5.88,0,0,0,.75-.19c-.12-.07-.27-.21-.36-.2A5.89,5.89,0,0,0,31,16.45Zm-9.82-.73c.17.5,1,.69,1.52,1,.83-.1,1.77.2,2.55-.2-.17-.49-1-.68-1.52-1C22.85,15.62,21.91,15.33,21.13,15.72Zm-1.3-3c.12.07.27.2.36.19a4.58,4.58,0,0,0,.75-.19l-.39-.22Zm45.75,57a2.49,2.49,0,0,0-2.63.18,3.17,3.17,0,0,0-1.23,2.18h5A2.7,2.7,0,0,0,65.58,69.76Z" fill="#2a2a2a"/>
</svg>
