<svg xmlns="http://www.w3.org/2000/svg" width="90.76" height="100" viewBox="0 0 90.76 100">
  <path d="M6.82,57.23c-.16.5.64.68,1.09,1v1.21l-1.09.66c0,.29-.19.62.45.83l2.75.18c.08.5.15,1,.23,1.47l1.57.87h3.11v1.13l-1.29.71-1,.12c0,1.16-1.08,2-2,3-1.15-.23-1.52.43-2.46.64H.3C.13,64.13,0,56.62,0,49.26H8.6l.9-.5L12,48.64l3-1.65v8h0l-2,1.08H8.49C8,56.48,7,56.68,6.82,57.23Zm36.57,24.9v15.5l-.15-.23a1.28,1.28,0,0,0-.44-.15H38.92c-3-1.53-7.08-3.75-11.48-6.17L29,90.21c-.37-.58-1.74-.13-2.17-.65V89c-1.16-.79-1.91,0-2.78.24L21.9,88l1.65-.91c-1.2-.44-1.81-1.23-3.22-1.51H18.57l-.51.26L15.72,84.5v-.7c.65-.31,1.63-.76,2.63-1.21a1.11,1.11,0,0,1,.38,0l.88.48A9,9,0,0,0,22.13,83c.13-.29.27-.57.4-.85l2.16-1.19V78.25H29.5c.73-.4,1.26-.69,1.78-1l-1.14-.68V74.83l-.05,0,6.16,3.4h0c-1.22.08-2.5-.21-3.65.19-.36.41-.28.75.37,1h2.18L36,79a4.94,4.94,0,0,1,1.43-.15Zm-4.76,6a11.11,11.11,0,0,0-4,.21,4.66,4.66,0,0,0,1.88.85c.38-.73,1.9-.3,2.6-.81C39.49,88.05,38.14,87.82,38.63,88.09ZM0,40.35c0,.63,0,1.28,0,1.94a3.23,3.23,0,0,0,1.3-.79C1.19,40.94.59,40.64,0,40.35Zm0-1.46H.62l1.21.6H6.29l1-1.23,1.24.64h2.17l1.61.9v2.66l2.58,1.15V35.06L.41,26.7C.2,27.82.08,32.68,0,38.89ZM43.39,98.05a8.73,8.73,0,0,1-.88.81V99a4.33,4.33,0,0,0,.88.33ZM15.71,15.58C24.84,10.4,34,5.19,43.43,0V17.31L23.14,28.45H20.69c-.66.46-1.83.73-1.67,1.33l.72.54L16.65,32,2.49,23.82v-.75c3.06-1.72,6.12-3.46,9.18-5.19l.22.11a2.62,2.62,0,0,0,1.53-.25,1.79,1.79,0,0,1,.83-.35,2.5,2.5,0,0,0,1.44-.31A8.32,8.32,0,0,0,15.71,15.58Zm21.34-6a1.66,1.66,0,0,0,.35.41l.4-.21-.4-.4C37.28,9.46,37,9.54,37.05,9.59ZM19.31,24l.33-.18.84.91,3.94-1.18h2.75c1.15-.67,3.29-.59,3.95-1.63-5.14-.31-8.95-.32-9.63,0,0,.9-1.35,1.33-2.3,1.9C19.15,23.79,19.27,23.9,19.31,24Zm-1.1,31.9c0-4.22,0-8.44,0-12.66a.9.9,0,0,0,.71-.43,1.9,1.9,0,0,0-.71-.2V40.16c0-.84.11-1.67.2-3.07,8.69,4.66,16.72,9.56,25,14.27V78.18c-3.22-1.72-6-3.18-8.82-4.71-.89-.48-1.77-1-2.66-1.47.12,0,.25-.11.24-.15a2.13,2.13,0,0,0-.35-.41l-.4.22.14.14-4.74-2.65c0-.44,0-.89,0-1.35,0-.18-.2-.35-.25-.44-.34-.34-1.05-.44-.84-.84H24.22c-1.15-.23-.29-1-1.43-1.22-.47,0-1.06.07-1.42-.27,0-.56-.43-1.15.56-1.67.45-.23.42-.74.85-1s.9-.62.42-1.55l-2-.68V58a4.46,4.46,0,0,1-2.51-1.79A1.83,1.83,0,0,0,18.21,55.87Zm21,1.22.39.22A1.82,1.82,0,0,0,40,56.9s-.22-.14-.35-.2ZM27,46.65a2.32,2.32,0,0,0,2.18-.09C28.14,46.16,27.43,46,27,46.65ZM25.74,66.54c.54-.08,1.45-.07.6-.55C26.17,65.9,25.63,66.23,25.74,66.54Zm46.64,1.74,15.44,8.83-4.27,2.42c.08-.27-.09-.51-.59-.72H81.88c-.79.42-.82.83,0,1.23.23,0,.49,0,.73,0L79.27,82h-7.6c-.46.64-.67,1.2.11,1.73l2.43.11.92.51-26,14.76a3.74,3.74,0,0,0-.93.24l.21.17-.94.53V82.06l10.71-5.91c.08,0,.15.1.21.09a4.46,4.46,0,0,0,.74-.19l-.39-.22ZM65.76,79.12l-.4-.22-.72.22c.13.07.28.2.37.19A4.85,4.85,0,0,0,65.76,79.12Zm3.22,0c-.45-.49-1.06-.3-1.56-.33-.11,0-.38.15-.35.2s.24.38.4.39C68,79.42,68.56,79.56,69,79.15Zm10.13-4c.54-.08,1.46-.07.6-.55C79.54,74.5,79,74.83,79.11,75.14Zm-5.24,1.71c5.12.24,4.75.11,5.23-.19V75.13c-.92.09-1.11-.47-1.8-.62-2.11,0-2.11,0-2.54.25-.09.48-.18,1-.26,1.45C74.28,76.43,73.24,76.45,73.87,76.85Zm2-41.89,13.66-7.81h.9a12.84,12.84,0,0,1,.32,2.1v7.83a.77.77,0,0,0-.37.19c-.3.36-.23.7.37,1q0,17.13,0,34.25a17.22,17.22,0,0,1-.3,2.15L75.87,66.18Zm8.79,7.91c.12.07.28.21.37.19a4.46,4.46,0,0,0,.74-.19c-.12-.07-.27-.2-.36-.19A4.85,4.85,0,0,0,84.66,42.87ZM45.3,20.14,70.65,34c-8.54,5.13-16.86,9.71-25.28,14.66L20.07,34.15q2.92-1.71,5.81-3.33h3.87c.13,0,.26-.13.35-.19C29.75,30,28.38,30.5,28,30L29.69,29h4.49l1.51-.91-1.63-.89H32.41C36.71,24.86,41,22.55,45.3,20.14ZM25.71,34.27c-.51-.35-1.13-.39-2.31-.09.12.37.21.64.31.92C24.75,35,25.08,34.53,25.71,34.27Zm34.57,2.15h1.55c.5-.34,1.35-.53,1.49-.94l-1.42-.92c-.61.06-1.21-.09-1.62.31ZM47.41.08C61.27,7.79,74.79,15.45,88.75,23.43l-.41.24-.29,0v.12L84.36,26H82.94c-.79.79-2.2.55-4.16.73a3.37,3.37,0,0,1,1.73,1.52L74,32.05,54.64,21.39l2.22-.61v-.59a2.21,2.21,0,0,0-2-.33c-.7.17-1.46.3-2.17.47L47.41,17.4ZM69.26,25.25l1.44.15c.85-.44.86-.85,0-1.31C70.44,24.55,69.32,24.62,69.26,25.25ZM52.41,4.78a2,2,0,0,0,2.23,0A2,2,0,0,0,52.41,4.78ZM47.07,51.5C55,46.91,63.23,42.15,72,37.07V64.51c-7.9,4.79-16.36,9-24.56,13.68a22.35,22.35,0,0,1-.52-4.58,2,2,0,0,0,2.18,0,2,2,0,0,0-2.18,0C46.53,66.75,46.53,54.69,47.07,51.5ZM58.88,68.78a1.86,1.86,0,0,0-.35-.41l-.4.22.4.39C58.65,68.91,58.9,68.83,58.88,68.78ZM70.7,40.66c.9-.25.55-.58.6-.86,0-.06-.27-.21-.36-.2-.26,0-.69.14-.7.22C70.21,40.1,70,40.43,70.7,40.66Zm-2.6,3.41c.45.49,1.05.3,1.55.33.11,0,.38-.15.35-.2s-.24-.38-.39-.39C69.11,43.8,68.51,43.67,68.1,44.07Zm-1,17.75c.07.14.24.38.4.38.49,0,1.09.15,1.51-.25-.45-.5-1.06-.3-1.56-.33C67.31,61.62,67,61.77,67.07,61.82ZM57.4,63.44l1.65-.86c.16-.25,1.66.84,2.13-.2a11.66,11.66,0,0,0-4.08,0C56.72,62.8,56.75,63.15,57.4,63.44Z" fill="#2a2a2a"/>
</svg>
