<svg xmlns="http://www.w3.org/2000/svg" viewBox="0 0 30.7 30"><path d="M14.83,0h1c.54.05,1.07.08,1.6.15a15.11,15.11,0,0,1,8.46,4.1,15,15,0,0,1,4.51,8.33c.11.61.17,1.22.26,1.83v1.95c-.05.35-.09.69-.13,1a15.24,15.24,0,0,1-5.81,10.12A14.58,14.58,0,0,1,20.07,30h-.28a.88.88,0,0,1-.63-1c0-1.31,0-2.61,0-3.92a3.8,3.8,0,0,0-1-2.91c.65-.13,1.27-.22,1.87-.37a6.47,6.47,0,0,0,3.74-2.28,7.21,7.21,0,0,0,1.29-3.64,6.5,6.5,0,0,0-1.36-5.28.48.48,0,0,1-.06-.39,5.3,5.3,0,0,0-.19-3.66.37.37,0,0,0-.26-.2A3.85,3.85,0,0,0,22,6.55c-.87.37-1.7.8-2.54,1.24a.85.85,0,0,1-.62.1,18,18,0,0,0-1.78-.33,14.61,14.61,0,0,0-5.31.33.79.79,0,0,1-.47-.09c-.86-.41-1.7-.87-2.57-1.24a4.59,4.59,0,0,0-1.23-.2.32.32,0,0,0-.26.16A5.25,5.25,0,0,0,7,10.14a.61.61,0,0,1-.11.59,11.08,11.08,0,0,0-1,1.84,7.21,7.21,0,0,0-.2,3.8,6.47,6.47,0,0,0,1.51,3.5,6.66,6.66,0,0,0,3.75,2c.51.11,1,.19,1.51.28a8.2,8.2,0,0,0-.56.9c-.14.32-.2.67-.31,1a.29.29,0,0,1-.15.2c-1.15.41-2.31.64-3.35-.2A6.92,6.92,0,0,1,7,22.79a3.08,3.08,0,0,0-2.15-1.41,2.76,2.76,0,0,0-.78.15,3.41,3.41,0,0,0,.41.63c.28.28.68.46.9.77a14,14,0,0,1,1,1.77,2.82,2.82,0,0,0,.94,1.14,5.37,5.37,0,0,0,3.51.62,6.43,6.43,0,0,0,.67-.1c0,.91,0,1.79,0,2.66a.86.86,0,0,1-.64,1h-.28l-.36-.13A15.18,15.18,0,0,1,.36,18.74C.18,18,.12,17.2,0,16.43V14.27c0-.08.05-.16.06-.23A14.86,14.86,0,0,1,3.68,5.39,14.86,14.86,0,0,1,12.58.28C13.32.15,14.08.09,14.83,0Z"/></svg>