<svg xmlns="http://www.w3.org/2000/svg" viewBox="0 0 21.91 30"><path d="M21.91,15V29.26c0,.64-.1.74-.75.74H.76C.12,30,0,29.88,0,29.26Q0,17.13,0,5a1,1,0,0,1,.33-.8C1.65,2.92,3,1.61,4.24.3A.94.94,0,0,1,5,0H21.18c.62,0,.73.11.73.72Zm-7.56-2.44h3.4c.54,0,.74-.2.68-.75a3.56,3.56,0,0,0-2.3-3.08c-.41-.16-.59-.09-.77.31a1.07,1.07,0,0,1-2,0c-.18-.39-.37-.48-.77-.31a3.52,3.52,0,0,0-2.3,3.14c-.05.49.15.69.64.69Zm-3.41,5.81H3.19a.42.42,0,0,0-.39.42.41.41,0,0,0,.33.47,1.8,1.8,0,0,0,.4,0H18.44c.12,0,.28,0,.36,0a.9.9,0,0,0,.32-.44c0-.23-.13-.39-.37-.43a1.58,1.58,0,0,0-.31,0Zm0-2.5h7.47c.51,0,.73-.15.72-.47S18.9,15,18.41,15H3.55a1.71,1.71,0,0,0-.46.05.37.37,0,0,0-.28.46,1,1,0,0,0,.36.4c.06.05.18,0,.28,0Zm3.43-7.79a2.17,2.17,0,1,0-2.16-2.18A2.18,2.18,0,0,0,14.37,8.09ZM11,21.8H3.51a1.9,1.9,0,0,0-.34,0,.45.45,0,0,0,0,.87,1.09,1.09,0,0,0,.31,0h15a1.31,1.31,0,0,0,.34,0,.41.41,0,0,0,.32-.44.42.42,0,0,0-.37-.43,1.31,1.31,0,0,0-.28,0Zm-3.8,4.33h4a.43.43,0,0,0,.39-.45.43.43,0,0,0-.35-.45,2,2,0,0,0-.35,0H3.54a1.6,1.6,0,0,0-.44,0,.37.37,0,0,0-.29.45.88.88,0,0,0,.32.4c.07.06.22,0,.33,0Z"/></svg>